<svg width="47" height="46" viewBox="0 0 47 46" fill="none" xmlns="http://www.w3.org/2000/svg">
<path d="M42.6246 22.722C42.6246 22.8907 42.6228 23.0584 42.6175 23.2253C42.4915 28.1161 40.5281 32.695 37.0559 36.1665C33.4656 39.7577 28.6904 41.7353 23.6116 41.7353C18.5326 41.7353 13.7575 39.7577 10.1671 36.1665C6.695 32.6951 4.73165 28.1159 4.60561 23.2253C4.60011 23.0584 4.59851 22.8907 4.59851 22.722C4.59851 17.6433 6.57588 12.8689 10.1671 9.27772C13.7575 5.68653 18.5328 3.70898 23.6116 3.70898C28.6904 3.70898 33.4656 5.68653 37.0559 9.27772C40.6471 12.8689 42.6246 17.6433 42.6246 22.722Z" fill="#A6B8FF"/>
<path d="M37.0559 9.27772C33.4656 5.68653 28.6904 3.70898 23.6116 3.70898C18.5326 3.70898 13.7575 5.68653 10.1671 9.27772C6.57606 12.8689 4.59851 17.6433 4.59851 22.722C4.59851 22.8907 4.60029 23.0584 4.60561 23.2253C4.73165 28.1161 6.695 32.695 10.1671 36.1665C13.7574 39.7577 18.5326 41.7353 23.6116 41.7353C28.6904 41.7353 33.4656 39.7577 37.0559 36.1665C40.5281 32.6953 42.4915 28.1161 42.6175 23.2253C42.6229 23.0584 42.6246 22.8907 42.6246 22.722C42.6246 17.6433 40.6471 12.8689 37.0559 9.27772ZM23.6116 40.8477C15.2148 40.8477 8.13378 35.1083 6.08416 27.3466C5.6938 25.8703 5.4861 24.3197 5.4861 22.722C5.4861 12.7278 13.6173 4.59657 23.6116 4.59657C33.6058 4.59657 41.737 12.7278 41.737 22.722C41.737 24.3197 41.5292 25.8705 41.1388 27.3466C39.0894 35.1083 32.0082 40.8477 23.6116 40.8477Z" fill="#A6B8FF"/>
<path d="M17.8022 15.958C16.241 15.958 14.9708 17.229 14.9708 18.7903C14.9708 20.3516 16.2411 21.6217 17.8022 21.6217C19.3633 21.6217 20.6336 20.3514 20.6336 18.7903C20.6336 17.2292 19.3635 15.958 17.8022 15.958ZM18.4138 18.5035C17.3416 18.5035 18.3915 19.8018 18.3915 18.7305C18.3915 17.6583 17.3193 19.0376 18.3915 19.0376C19.4637 19.0376 18.3915 17.6583 18.3915 18.7305C18.3915 19.8018 19.486 18.5035 18.4138 18.5035Z" fill="#273E56"/>
<path d="M29.4206 15.958C27.8593 15.958 26.5894 17.229 26.5894 18.7903C26.5894 20.3516 27.8596 21.6217 29.4206 21.6217C30.9816 21.6217 32.2519 20.3514 32.2519 18.7903C32.2522 17.229 30.9819 15.958 29.4206 15.958ZM29.7526 17.1952C28.6814 17.1952 31.6879 19.8616 31.6879 18.7903C31.6879 17.7181 28.6814 19.6517 29.7526 19.6517C30.8248 19.6517 31.3643 17.7181 31.3643 18.7903C31.3646 19.8616 30.825 17.1952 29.7526 17.1952Z" fill="#273E56"/>
<path d="M28.9791 31.0215H18.2438V31.9091H28.9791V31.0215Z" fill="#273E56"/>
</svg>
