<svg width="39" height="39" viewBox="0 0 39 39" fill="none" xmlns="http://www.w3.org/2000/svg">
<path d="M38.5137 19.722C38.5137 19.8907 38.5118 20.0584 38.5066 20.2253C38.3805 25.116 36.4172 29.695 32.9449 33.1664C29.3546 36.7576 24.5794 38.7352 19.5006 38.7352C14.4217 38.7352 9.6465 36.7576 6.0562 33.1664C2.58404 29.6951 0.620687 25.1159 0.494649 20.2253C0.489235 20.0584 0.487549 19.8907 0.487549 19.722C0.487549 14.6432 2.46501 9.8689 6.0562 6.27772C9.64659 2.68653 14.4218 0.708984 19.5006 0.708984C24.5794 0.708984 29.3546 2.68653 32.9449 6.27772C36.5361 9.8689 38.5137 14.6432 38.5137 19.722Z" fill="#86AB99"/>
<path d="M32.9449 6.27772C29.3546 2.68653 24.5794 0.708984 19.5006 0.708984C14.4217 0.708984 9.6465 2.68653 6.0562 6.27772C2.4651 9.86891 0.487549 14.6432 0.487549 19.722C0.487549 19.8907 0.489324 20.0584 0.494649 20.2253C0.620687 25.116 2.58404 29.695 6.0562 33.1664C9.6465 36.7576 14.4217 38.7352 19.5006 38.7352C24.5794 38.7352 29.3546 36.7576 32.9449 33.1664C36.4172 29.6952 38.3805 25.116 38.5066 20.2253C38.512 20.0584 38.5137 19.8907 38.5137 19.722C38.5137 14.6432 36.5361 9.86891 32.9449 6.27772ZM19.5006 37.8476C11.1039 37.8476 4.02282 32.1083 1.97328 24.3465C1.58283 22.8703 1.37514 21.3197 1.37514 19.722C1.37514 9.72778 9.50635 1.59657 19.5006 1.59657C29.4949 1.59657 37.6261 9.72778 37.6261 19.722C37.6261 21.3197 37.4183 22.8704 37.0278 24.3465C34.9784 32.1083 27.8972 37.8476 19.5006 37.8476Z" fill="#86AB99"/>
<path d="M13.691 12.958C12.1298 12.958 10.8596 14.229 10.8596 15.7903C10.8596 17.3516 12.1298 18.6217 13.691 18.6217C15.2522 18.6217 16.5224 17.3515 16.5224 15.7903C16.5224 14.2291 15.2523 12.958 13.691 12.958ZM14.5873 14.5023C13.5151 14.5023 15.8156 16.8018 15.8156 15.7305C15.8156 14.6583 12.2869 18.494 13.3591 18.494C14.4313 18.494 15.6348 14.7181 15.6348 15.7903C15.6348 16.8616 15.6596 14.5023 14.5873 14.5023Z" fill="#273E56"/>
<path d="M25.3098 12.958C23.7486 12.958 22.4785 14.229 22.4785 15.7903C22.4785 17.3516 23.7487 18.6217 25.3098 18.6217C26.8709 18.6217 28.1412 17.3515 28.1412 15.7903C28.1413 14.229 26.8711 12.958 25.3098 12.958ZM25.3098 17.7341C24.2386 17.7341 25.7337 18.8054 25.7337 17.7341C24.6624 17.7341 25.7337 16.6619 25.7337 17.7341C26.8059 17.7341 23.7994 15.8865 23.7994 16.9588C23.7996 18.0301 26.3821 17.7341 25.3098 17.7341Z" fill="#273E56"/>
<path d="M19.6392 34.2203C14.0045 34.2203 9.42029 29.6362 9.42029 24.0014V23.5576H29.8581V24.0014C29.8581 29.6362 25.2739 34.2203 19.6392 34.2203ZM10.3183 24.4453C10.5509 29.3852 14.6428 33.3328 19.6392 33.3328C24.6356 33.3328 28.7276 29.3852 28.9601 24.4453H10.3183Z" fill="#273E56"/>
</svg>
