<svg width="181" height="157" viewBox="0 0 181 157" fill="none" xmlns="http://www.w3.org/2000/svg">
<g clip-path="url(#clip0_196_587)">
<path d="M67.2842 69.9134C67.3599 69.8719 67.4341 69.8289 67.5069 69.7846C67.6934 68.8916 67.8798 67.9986 68.0663 67.1056C69.1639 68.2456 71.3221 68.0305 72.173 66.6962C69.206 60.3674 65.3045 54.5206 60.5993 49.3517C59.5736 48.2194 58.9981 46.7507 58.9816 45.223C58.965 43.6953 59.5085 42.2144 60.5094 41.0602C60.5274 41.0392 60.5453 41.0181 60.5629 40.9968C63.2199 40.0994 65.7359 38.829 68.0353 37.2235C60.1497 24.5539 45.113 14.4888 41.5389 0C30.7865 11.5468 29.5795 15.6135 18.827 27.1603C18.827 27.1603 8.64575 36.3475 6.4482 41.2849C6.98815 41.852 11.8222 43.2131 12.0081 44.3283C15.6947 44.6238 22.0816 40.583 22.0816 40.583C22.0816 40.583 8.14116 55.445 3.90869 64.5993C3.52756 65.4237 3.16557 66.365 3.48487 67.2152C3.73979 67.894 4.65427 68.2854 5.24325 68.0157C4.53968 68.6943 3.97476 69.5032 3.57995 70.3974C5.98673 72.0242 9.5361 71.6667 11.5702 69.5927C10.9806 70.6941 10.3911 71.7955 9.8016 72.8968L9.80265 72.8994C10.5991 73.1597 11.3138 73.6232 11.8763 74.2443C12.4387 74.8653 12.8294 75.6224 13.0097 76.4406C13.19 77.2589 13.1537 78.11 12.9044 78.9099C12.655 79.7098 12.2013 80.4309 11.588 81.0018C7.92975 84.4041 4.58704 87.9804 3.3622 90.3356C2.20993 92.5512 14.0411 95.2219 16.7022 95.1124C19.3634 95.0029 21.8508 93.8336 24.2542 92.686C24.1371 93.7819 24.3467 94.888 24.8567 95.8651C26.173 96.1845 27.5398 96.2377 28.8769 96.0216C30.214 95.8054 31.4944 95.3242 32.643 94.6063C32.4996 97.5702 37.6079 98.7433 38.772 96.0138C38.3352 97.6184 40.4586 98.6118 42.096 98.9025C46.768 99.7318 52.4059 100.236 55.446 96.5928C58.945 100.121 65.357 100.054 68.8357 96.5382C68.4934 97.1448 69.0174 98.1655 69.7925 98.3264C70.7061 98.5159 71.5948 97.9731 72.3704 97.4546C75.8816 95.1072 79.3927 92.7598 82.9039 90.4124L66.7377 79.5143C63.2194 77.1426 63.5636 71.9531 67.2842 69.9134Z" fill="#C7D3C9"/>
<path d="M40.1673 155.918H37.8838C36.8022 129.956 36.0234 105.113 37.8838 90.0166H40.1673L40.1673 155.918Z" fill="#C7D3C9"/>
<path d="M157.709 150.512C157.86 150.518 158.01 150.479 158.137 150.398C158.265 150.317 158.365 150.199 158.423 150.059C158.482 149.92 158.496 149.766 158.463 149.618C158.431 149.47 158.355 149.336 158.243 149.233C158.225 149.159 158.212 149.106 158.193 149.032C158.2 149.016 158.206 149 158.213 148.984C158.365 148.624 158.62 148.318 158.946 148.103C159.272 147.888 159.654 147.774 160.044 147.775C160.435 147.777 160.816 147.894 161.14 148.111C161.464 148.328 161.717 148.637 161.867 148.997C162.464 150.437 163.225 151.878 163.412 153.4C163.495 154.073 163.46 154.755 163.31 155.416C164.713 152.354 165.442 149.026 165.447 145.658C165.447 144.813 165.4 143.968 165.306 143.128C165.228 142.44 165.121 141.756 164.983 141.077C164.23 137.394 162.615 133.942 160.27 131.005C159.135 130.386 158.217 129.433 157.639 128.276C157.43 127.86 157.283 127.416 157.201 126.958C157.329 126.974 157.459 126.985 157.587 126.993C157.627 126.995 157.669 126.997 157.709 127L157.724 127C157.864 127.007 158.004 126.972 158.126 126.901C158.247 126.83 158.346 126.725 158.409 126.599C158.472 126.473 158.498 126.332 158.483 126.192C158.468 126.052 158.413 125.919 158.324 125.81C158.269 125.742 158.213 125.674 158.158 125.606C158.074 125.501 157.988 125.398 157.904 125.293C157.894 125.283 157.885 125.272 157.877 125.261C157.78 125.142 157.684 125.024 157.587 124.904C157.763 124.631 158 124.402 158.28 124.235C159.247 123.668 160.583 124.061 161.282 124.936C161.983 125.811 162.115 127.039 161.872 128.133C161.632 129.064 161.236 129.947 160.7 130.745C160.753 130.812 160.807 130.877 160.86 130.944C161.819 132.178 162.655 133.502 163.356 134.899C163.186 133.334 163.389 131.752 163.95 130.281C164.518 128.91 165.583 127.756 166.521 126.571C167.648 125.147 169.958 125.768 170.156 127.573C170.158 127.59 170.16 127.608 170.162 127.625C170.022 127.704 169.886 127.787 169.753 127.875C169.585 127.987 169.455 128.147 169.38 128.334C169.305 128.521 169.288 128.727 169.332 128.924C169.375 129.12 169.477 129.3 169.624 129.437C169.771 129.575 169.957 129.665 170.156 129.696L170.176 129.699C170.127 130.201 170.039 130.699 169.914 131.188C169.552 132.552 168.911 133.827 168.033 134.932C167.155 136.038 166.058 136.95 164.811 137.611C164.729 137.653 164.649 137.695 164.567 137.735C165.271 139.731 165.713 141.81 165.881 143.92C165.976 145.165 165.971 146.415 165.864 147.659L165.871 147.615C166.139 146.232 166.877 144.984 167.96 144.081C169.567 142.761 171.838 142.275 173.572 141.213C173.756 141.095 173.971 141.032 174.19 141.031C174.409 141.031 174.623 141.093 174.808 141.21C174.993 141.328 175.141 141.496 175.233 141.694C175.326 141.893 175.36 142.113 175.331 142.331C175.329 142.346 175.326 142.361 175.324 142.377C175.065 142.482 174.814 142.603 174.57 142.74C174.431 142.819 174.295 142.902 174.161 142.99C173.994 143.102 173.864 143.262 173.789 143.449C173.713 143.636 173.697 143.842 173.74 144.039C173.784 144.235 173.886 144.414 174.033 144.552C174.18 144.69 174.365 144.78 174.565 144.811L174.585 144.814C174.6 144.816 174.612 144.818 174.627 144.82C174.185 145.875 173.565 146.846 172.794 147.69C171.842 148.712 170.691 149.529 169.411 150.09C168.132 150.652 166.751 150.946 165.354 150.955H165.352C164.973 152.603 164.424 154.207 163.713 155.741H157.856C157.835 155.676 157.816 155.609 157.797 155.544C158.339 155.578 158.883 155.545 159.418 155.447C158.983 154.914 158.548 154.376 158.114 153.843C158.104 153.833 158.095 153.823 158.087 153.812C157.866 153.539 157.644 153.268 157.423 152.995L157.423 152.995C157.411 152.158 157.508 151.324 157.709 150.512Z" fill="#DA9E96"/>
<path d="M24.6179 150.512C24.4668 150.518 24.3173 150.479 24.1895 150.398C24.0617 150.317 23.9619 150.199 23.9035 150.059C23.8452 149.92 23.8311 149.766 23.8633 149.618C23.8955 149.47 23.9723 149.336 24.0833 149.233C24.1019 149.159 24.1153 149.106 24.1339 149.032C24.1272 149.016 24.1205 149 24.1138 148.984C23.9616 148.624 23.7066 148.318 23.3807 148.103C23.0549 147.888 22.6728 147.774 22.2824 147.775C21.892 147.777 21.5108 147.894 21.1865 148.111C20.8623 148.328 20.6096 148.637 20.4601 148.997C19.8625 150.437 19.1016 151.878 18.9143 153.4C18.8318 154.073 18.8666 154.755 19.0172 155.416C17.6136 152.354 16.8848 149.026 16.8801 145.658C16.8798 144.813 16.9267 143.968 17.0207 143.128C17.0984 142.44 17.2062 141.756 17.344 141.077C18.0963 137.394 19.7115 133.942 22.0569 131.005C23.1921 130.386 24.1102 129.433 24.6873 128.276C24.8964 127.86 25.0442 127.416 25.1261 126.958C24.998 126.974 24.8679 126.985 24.7398 126.993C24.6999 126.995 24.658 126.997 24.6181 127L24.603 127C24.4623 127.007 24.3227 126.972 24.2011 126.901C24.0795 126.83 23.9811 126.725 23.9177 126.599C23.8543 126.473 23.8286 126.332 23.8437 126.192C23.8588 126.052 23.9141 125.919 24.0028 125.81C24.0581 125.742 24.1134 125.674 24.1688 125.606C24.2528 125.501 24.3389 125.398 24.4228 125.293C24.4325 125.283 24.4416 125.272 24.4501 125.261C24.5467 125.142 24.6432 125.024 24.7398 124.904C24.5635 124.631 24.3265 124.402 24.0471 124.235C23.0793 123.668 21.7441 124.061 21.045 124.936C20.3439 125.811 20.2116 127.039 20.4551 128.133C20.6946 129.064 21.0907 129.947 21.6266 130.745C21.5741 130.812 21.5195 130.877 21.467 130.944C20.5076 132.178 19.6715 133.502 18.9705 134.899C19.1409 133.334 18.9375 131.752 18.3768 130.281C17.8086 128.91 16.7436 127.756 15.8057 126.571C14.6792 125.147 12.3691 125.768 12.1707 127.573C12.1687 127.59 12.1669 127.608 12.165 127.625C12.3043 127.704 12.4407 127.787 12.5741 127.875C12.7417 127.987 12.8716 128.147 12.9467 128.334C13.0219 128.521 13.0387 128.727 12.9951 128.924C12.9515 129.12 12.8495 129.3 12.7024 129.437C12.5553 129.575 12.37 129.665 12.1708 129.696L12.1504 129.699C12.2 130.201 12.2877 130.699 12.4128 131.188C12.7751 132.552 13.4155 133.827 14.2937 134.932C15.1719 136.038 16.2689 136.95 17.5161 137.611C17.598 137.653 17.6778 137.695 17.7597 137.735C17.0554 139.731 16.6136 141.81 16.4455 143.92C16.3503 145.165 16.3559 146.415 16.4623 147.659L16.456 147.615C16.1873 146.232 15.4495 144.984 14.3672 144.081C12.7597 142.761 10.4887 142.275 8.75457 141.213C8.57027 141.095 8.35598 141.032 8.13696 141.031C7.91795 141.031 7.70335 141.093 7.51847 141.21C7.3336 141.328 7.18617 141.496 7.09356 141.694C7.00095 141.893 6.96702 142.113 6.99579 142.331C6.99812 142.346 7.00048 142.361 7.00288 142.377C7.26139 142.482 7.51309 142.603 7.75652 142.74C7.89583 142.819 8.03219 142.902 8.16561 142.99C8.33322 143.102 8.4631 143.262 8.53822 143.449C8.61334 143.636 8.63021 143.842 8.5866 144.039C8.543 144.235 8.44097 144.414 8.29387 144.552C8.14677 144.69 7.96146 144.78 7.76224 144.811L7.74182 144.814C7.72713 144.816 7.71453 144.818 7.69986 144.82C8.14156 145.875 8.7615 146.846 9.53253 147.69C10.485 148.712 11.6362 149.529 12.9155 150.09C14.1949 150.652 15.5754 150.946 16.9724 150.955H16.9745C17.3538 152.603 17.9032 154.207 18.6141 155.741H24.4711C24.4921 155.676 24.511 155.609 24.5299 155.544C23.9878 155.578 23.4435 155.545 22.9092 155.447C23.3438 154.914 23.7783 154.376 24.2129 153.843C24.2226 153.833 24.2317 153.823 24.2402 153.812C24.4606 153.539 24.6831 153.268 24.9036 152.995L24.9037 152.995C24.9154 152.158 24.8193 151.324 24.6179 150.512Z" fill="#DA9E96"/>
<path d="M111.099 123.642L109.579 124.241L121.964 155.666L123.484 155.067L111.099 123.642Z" fill="#E6E6E6"/>
<path d="M101.044 155.068L102.564 155.667L114.949 124.242L113.429 123.643L101.044 155.068Z" fill="#E6E6E6"/>
<path d="M111.628 129.386C117.596 129.386 122.433 127.516 122.433 125.209C122.433 122.902 117.596 121.032 111.628 121.032C105.661 121.032 100.823 122.902 100.823 125.209C100.823 127.516 105.661 129.386 111.628 129.386Z" fill="#E6E6E6"/>
<path d="M120.645 126.985L103.357 124.912C102.558 124.816 101.787 124.564 101.085 124.17C100.384 123.776 99.7678 123.247 99.2709 122.615C98.774 121.983 98.4065 121.259 98.1894 120.484C97.9723 119.71 97.9098 118.9 98.0056 118.102C98.1014 117.303 98.3535 116.532 98.7475 115.83C99.1416 115.129 99.6699 114.513 100.302 114.016C100.935 113.519 101.659 113.151 102.433 112.934C103.207 112.717 104.017 112.655 104.815 112.751L122.103 114.824C123.716 115.017 125.185 115.844 126.189 117.121C127.193 118.398 127.648 120.021 127.454 121.634C127.261 123.246 126.435 124.716 125.158 125.72C123.881 126.723 122.257 127.178 120.645 126.985Z" fill="#2F2E41"/>
<path d="M117.255 83.5088L119.789 85.9666L123.028 87.4033C122.745 87.5991 121.254 107.693 123.175 108.529C124.811 109.241 123.144 109.83 123.2 111.487C123.257 113.145 123.469 116.554 123.469 116.554C114.476 120.016 110.986 120.351 105.758 114.411C105.722 114.078 105.801 113.743 105.982 113.461C106.162 113.179 106.434 112.967 106.751 112.861C107.911 112.413 106.14 109.463 107.085 109.119C108.029 108.774 107.246 104.709 107.246 104.709L105.234 95.5505L104.741 94.167L107.284 86.3682L110.153 85.6939L111.569 83.1797L117.255 83.5088Z" fill="#E6E6E6"/>
<path d="M83.3767 102.068C83.6519 101.842 83.9733 101.68 84.3181 101.592C84.663 101.504 85.0229 101.492 85.3727 101.558C85.7224 101.624 86.0534 101.766 86.3423 101.974C86.6312 102.182 86.871 102.451 87.0449 102.761L95.5625 101.244L93.784 105.373L85.9682 106.181C85.4271 106.439 84.8103 106.489 84.2348 106.322C83.6593 106.155 83.165 105.783 82.8455 105.276C82.5261 104.769 82.4037 104.162 82.5016 103.571C82.5995 102.98 82.9109 102.445 83.3767 102.068Z" fill="#A0616A"/>
<path d="M92.1837 105.683C92.9312 106.455 93.6657 106.363 94.3895 105.561L104.525 105.001L104.556 104.942C104.592 104.874 106.728 100.828 108.623 97.0407C108.915 96.4575 109.201 95.8804 109.472 95.325C109.59 95.0853 109.704 94.85 109.816 94.6192C110.568 93.0618 111.167 91.7453 111.401 91.0537C111.943 89.5058 111.938 87.8193 111.389 86.2742L111.374 86.2368L111.338 86.2165C110.619 85.8045 109.78 85.65 108.961 85.7784C108.142 85.9069 107.391 86.3106 106.833 86.923C104.15 89.8944 102.195 93.4485 101.122 97.305L100.514 99.4993L94.2401 101.053C93.6001 100.708 93.048 100.794 92.6138 101.456L92.1837 105.683Z" fill="#E6E6E6"/>
<path d="M102.031 147.242L104.184 149.206L112.785 141.837L109.607 138.938L102.031 147.242Z" fill="#FFB6B6"/>
<path d="M102.123 146.037L102.729 146.59L105.973 147.787L106.363 149.905L106.363 149.906C107.079 150.559 107.507 151.471 107.551 152.44C107.595 153.409 107.253 154.356 106.599 155.072L106.519 155.16L99.5781 148.827L102.123 146.037Z" fill="#2F2E41"/>
<path d="M118.339 124.318L116.481 120.73C116.636 117.097 119.787 114.259 123.405 114.621C125.42 114.823 127.269 116.022 127.926 119.409C129.615 128.116 109.235 145.351 109.235 145.351L105.696 142.978L105.617 140.607L107.692 139.432L107.768 137.415L109.737 136.569L118.339 124.318Z" fill="#2F2E41"/>
<path d="M118.392 77.1731C118.685 74.1191 116.448 71.4054 113.394 71.1118C110.34 70.8182 107.626 73.056 107.332 76.1099C107.039 79.1639 109.276 81.8776 112.33 82.1712C115.384 82.4648 118.098 80.2271 118.392 77.1731Z" fill="#A0616A"/>
<path d="M117.335 146.696L114.902 148.301L107.554 139.683L111.144 137.314L117.335 146.696Z" fill="#FFB6B6"/>
<path d="M119.511 148.645L111.668 153.82L111.602 153.721C111.068 152.911 110.877 151.923 111.072 150.972C111.267 150.022 111.831 149.188 112.641 148.654L112.641 148.654L113.356 146.622L116.746 145.945L117.431 145.493L119.511 148.645Z" fill="#2F2E41"/>
<path d="M106.217 123.969L108.517 120.23C108.93 116.617 106.259 113.323 102.629 113.117C100.607 113.002 98.5938 113.899 97.4174 117.142C94.3924 125.48 111.839 145.679 111.839 145.679L115.705 143.886L116.152 141.557L114.286 140.072L114.524 138.068L112.712 136.926L106.217 123.969Z" fill="#2F2E41"/>
<path d="M114.762 77.9654C114.767 77.8938 114.772 77.822 114.777 77.75C114.753 77.8193 114.748 77.8935 114.762 77.9654Z" fill="#2F2E41"/>
<path d="M119.542 75.3936C119.343 74.4817 118.899 73.6413 118.258 72.9627C117.617 72.2842 116.804 71.7932 115.905 71.5425C115.658 71.1297 115.322 70.7774 114.922 70.5115C114.521 70.2456 114.066 70.0728 113.59 70.0058C112.696 69.8868 111.8 70.1519 110.94 70.4252C110.409 70.594 109.879 70.7671 109.351 70.9444C108.921 71.0889 108.392 71.4186 108.535 71.8494C108.426 71.7928 108.302 71.7736 108.181 71.7949C108.061 71.8162 107.95 71.8768 107.868 71.9672C107.785 72.0576 107.735 72.1728 107.724 72.2948C107.714 72.4168 107.744 72.5388 107.81 72.6418C107.611 72.3846 107.15 72.5496 107.039 72.8556C106.928 73.1616 107.059 73.5008 107.221 73.783C107.709 74.5856 108.45 75.2036 109.327 75.5401C110.204 75.8767 111.168 75.9128 112.068 75.6427C112.594 75.4705 113.132 75.1877 113.671 75.3141C114.18 75.4333 114.546 75.9051 114.691 76.4073C114.797 76.8464 114.826 77.3006 114.777 77.7496C114.846 77.5902 114.975 77.4645 115.136 77.4C115.297 77.3356 115.477 77.3377 115.637 77.4059C116.021 77.5975 116.159 78.1028 116.064 78.5216C115.969 78.9404 114.969 80.5642 114.705 80.903C114.416 81.2227 114.204 81.6039 114.083 82.0178C115.03 81.8722 115.978 81.7265 116.925 81.5808L116.976 81.6325C118.445 80.4912 119.913 77.216 119.542 75.3936Z" fill="#2F2E41"/>
<path d="M105.932 114.519C106.063 114.188 106.265 113.89 106.524 113.645C106.782 113.401 107.092 113.216 107.429 113.104C107.767 112.992 108.126 112.956 108.479 112.997C108.833 113.039 109.173 113.157 109.475 113.345L116.186 107.884L116.635 112.357L110.194 116.857C109.846 117.345 109.331 117.688 108.747 117.821C108.162 117.955 107.55 117.869 107.024 117.581C106.499 117.293 106.097 116.822 105.896 116.257C105.695 115.693 105.707 115.074 105.932 114.519Z" fill="#A0616A"/>
<path d="M116.549 113.187C117.357 113.477 117.983 113.262 118.238 112.03L125.845 106.818L125.844 106.751C126.836 106.675 126.609 92.0046 125.087 91.2869C124.81 89.6708 123.987 88.1983 122.757 87.1139L122.725 87.0889L122.685 87.0882C121.856 87.0772 121.048 87.3491 120.394 87.8589C119.74 88.3688 119.279 89.0863 119.088 89.893C118.185 93.7928 118.201 97.8492 119.134 101.742L119.668 103.956L116.347 106.766C115.429 106.526 115.022 106.896 115.089 107.831L116.549 113.187Z" fill="#E6E6E6"/>
<path d="M58.5198 125.787L57.1011 126.346L68.6567 155.667L70.0755 155.108L58.5198 125.787Z" fill="#E6E6E6"/>
<path d="M49.1373 155.108L50.556 155.667L62.1117 126.346L60.6929 125.787L49.1373 155.108Z" fill="#E6E6E6"/>
<path d="M59.0133 131.145C64.5813 131.145 69.095 129.4 69.095 127.248C69.095 125.095 64.5813 123.351 59.0133 123.351C53.4453 123.351 48.9315 125.095 48.9315 127.248C48.9315 129.4 53.4453 131.145 59.0133 131.145Z" fill="#E6E6E6"/>
<path d="M52.8963 82.3366C53.1248 83.7658 53.9115 85.0457 55.0834 85.895C56.2553 86.7442 57.7165 87.0934 59.1458 86.8656C59.3077 86.8398 59.4673 86.8067 59.6247 86.7665C60.9455 86.4323 62.0935 85.616 62.8429 84.4781C63.5924 83.3403 63.889 81.9633 63.6745 80.6178C63.6067 80.1895 63.4875 79.7709 63.3196 79.371C62.8044 78.1392 61.8556 77.1391 60.6526 76.5598C59.4496 75.9806 58.076 75.8625 56.7918 76.2278C55.5076 76.5932 54.4019 77.4167 53.684 78.5425C52.9662 79.6682 52.6859 81.0181 52.8963 82.3366Z" fill="#FFB6B6"/>
<path d="M82.3194 151.334L84.7705 150.605L83.1492 140.586L79.5317 141.662L82.3194 151.334Z" fill="#FFB6B6"/>
<path d="M67.288 147.38C67.4372 147.51 67.5867 147.638 67.7379 147.767C68.0386 148.023 68.3432 148.278 68.6483 148.528C68.8017 148.654 68.9567 148.78 69.1104 148.903L69.1096 148.908L69.1194 148.912L69.1225 148.914L69.3701 149.018L69.8948 148.1L70.1368 147.676L70.4788 147.077L71.1053 145.98L74.4044 140.207L70.9291 138.742L70.7058 139.275L70.7041 139.274L70.5937 139.538L68.5186 144.463L68.0949 145.469L68.0815 145.5L67.8267 146.101L67.6069 146.622L67.362 147.204L67.288 147.38Z" fill="#FFB6B6"/>
<path d="M49.1302 122.393C49.3011 122.798 49.4774 123.201 49.6558 123.602C49.9872 124.347 50.3319 125.085 50.6899 125.814C50.6896 125.816 50.6913 125.816 50.6927 125.818C50.9226 126.11 51.1859 126.375 51.4771 126.606C51.4889 126.618 51.5029 126.627 51.515 126.638C51.7299 126.805 51.9646 126.946 52.2139 127.056C52.3039 127.094 52.3956 127.132 52.4856 127.171C52.811 127.305 53.1348 127.426 53.4583 127.539C54.034 127.738 54.6089 127.907 55.1828 128.046C55.2289 128.058 55.2752 128.069 55.3216 128.08C57.6886 128.635 60.0646 128.721 62.5714 128.643C63.8091 128.606 65.079 128.527 66.394 128.445C66.8239 128.417 67.2552 128.391 67.6915 128.366C67.7244 128.365 67.7591 128.361 67.7937 128.36C68.4171 128.323 69.0503 128.29 69.6983 128.26C70.5139 128.223 71.3538 128.195 72.2243 128.18L71.975 129.364C71.7795 130.274 71.4454 131.148 70.9844 131.957C70.4554 132.957 70.0367 133.749 70.3649 135.587L70.5225 136.476C70.3052 136.871 70.1824 137.311 70.1638 137.761C70.1451 138.212 70.2311 138.66 70.415 139.072L70.4596 139.17L67.0582 144.929L66.8377 145.302L68.0812 145.499L69.6106 145.743L72.2029 146.154L77.1319 139.242L77.3677 138.912L77.3706 138.894L79.2681 124.412C79.2832 124.284 79.2936 124.153 79.297 124.023C79.3204 123.434 79.2263 122.847 79.0201 122.294C78.8139 121.742 78.4998 121.236 78.0961 120.807C77.7097 120.392 77.2447 120.059 76.7283 119.826C76.2118 119.592 75.6541 119.464 75.0877 119.449L73.7812 119.411L71.1119 119.335L69.2314 119.283L69.1938 119.282L63.6484 119.124L63.5103 117.472L63.4426 117.434L61.2876 116.233L53.8345 112.08L53.8154 112.07L53.3252 111.797L53.2474 111.887C53.2242 111.915 53.201 111.942 53.1795 111.969C52.519 112.81 51.9461 113.716 51.4697 114.673C50.6763 116.234 49.9724 117.84 49.3616 119.481C49.3348 119.552 49.3108 119.617 49.2896 119.675L49.2816 119.693C49.2721 119.721 49.2659 119.738 49.2634 119.743C48.9606 120.474 48.941 121.421 49.1302 122.393Z" fill="#2F2E41"/>
<path d="M49.638 117.026C49.6801 116.923 49.7291 116.819 49.7793 116.719C50.1715 115.962 50.605 115.228 51.0781 114.519C51.6109 113.712 52.2321 112.855 52.9559 111.935C53.3061 111.489 53.6801 111.028 54.0777 110.55C54.2769 110.31 54.483 110.067 54.6961 109.819C54.7047 109.807 54.7139 109.796 54.7237 109.786L54.7849 109.713L62.4479 112.001L64.6896 112.846L65.2454 114.332L65.2302 114.699C65.2319 114.699 65.2319 114.699 65.23 114.701L65.1918 115.7L65.1915 115.701L65.142 117.021L65.1557 117.022L69.5706 117.146L74.1204 117.275L76.5643 117.345C77.1307 117.361 77.6884 117.489 78.2049 117.722C78.7214 117.955 79.1863 118.289 79.5726 118.703C79.9762 119.133 80.2903 119.638 80.4965 120.191C80.7027 120.743 80.7969 121.331 80.7736 121.92C80.7701 122.039 80.761 122.161 80.7472 122.281L82.1586 127.992C83.0034 131.408 83.3278 134.932 83.1209 138.445L83.9388 144.004L83.6994 143.989L80.1366 143.759L79.1957 143.699L77.626 140.395C77.4472 140.018 77.2817 139.634 77.1326 139.243C76.8863 138.604 76.681 137.951 76.5179 137.286L73.766 126.076C73.4153 126.081 73.0684 126.083 72.7253 126.083C71.1375 126.089 69.619 126.058 68.1697 125.991C63.4571 125.775 59.4409 125.18 55.9406 124.176C54.9575 123.895 54.014 123.581 53.11 123.234C52.7783 123.107 52.452 122.976 52.131 122.84C52.0553 122.809 51.9812 122.779 51.9074 122.746C51.244 122.458 50.6634 122.009 50.2188 121.438C49.7741 120.868 49.4796 120.195 49.3623 119.482C49.2183 118.654 49.314 117.802 49.638 117.026Z" fill="#2F2E41"/>
<path d="M81.8381 149.664L84.4903 148.873L84.9064 148.748L85.2837 150.362L89.4445 151.994C89.6503 152.074 89.8249 152.219 89.9429 152.405C90.0609 152.592 90.116 152.812 90.1003 153.032C90.0845 153.253 89.9987 153.462 89.8554 153.63C89.7121 153.798 89.5187 153.916 89.3036 153.967L84.819 155.018L83.6725 153.603L83.7447 155.27L82.0556 155.666L81.1934 149.857L81.8381 149.664Z" fill="#2F2E41"/>
<path d="M67.0582 144.929L66.8378 145.302L66.9952 145.327L67.0582 144.929Z" fill="#2F2E41"/>
<path d="M67.8401 145.548L70.2814 146.852L70.6646 147.056L69.7971 148.469L71.6055 152.556C71.6951 152.758 71.7178 152.983 71.6702 153.199C71.6226 153.415 71.5072 153.609 71.341 153.755C71.1747 153.901 70.9663 153.989 70.7461 154.008C70.526 154.026 70.3056 153.974 70.1173 153.858L66.1908 151.45L66.3717 149.638L65.2501 150.873L63.771 149.966L67.2463 145.231L67.8401 145.548Z" fill="#2F2E41"/>
<path d="M84.9149 113.874C84.6553 113.954 84.3814 113.976 84.1125 113.938C83.8436 113.9 83.5862 113.804 83.3586 113.656C83.1309 113.508 82.9385 113.311 82.7949 113.081C82.6512 112.851 82.5598 112.591 82.5272 112.322L76.0762 110.924L78.5281 108.525L84.2781 110.221C84.7346 110.196 85.1844 110.339 85.5422 110.624C85.9 110.908 86.141 111.314 86.2195 111.765C86.298 112.215 86.2085 112.679 85.9681 113.067C85.7277 113.456 85.3529 113.743 84.9149 113.874Z" fill="#FFB6B6"/>
<path d="M65.9687 110.861L54.0608 100.685C53.1178 99.8777 52.5337 98.729 52.4366 97.4912C52.3395 96.2534 52.7374 95.0277 53.543 94.0829C53.9896 93.5604 54.5458 93.1425 55.172 92.8591C55.7982 92.5756 56.4792 92.4335 57.1665 92.4428C57.8539 92.4521 58.5307 92.6127 59.149 92.913C59.7674 93.2133 60.312 93.6461 60.7443 94.1805L69.489 104.994L81.2184 108.16L80.9142 112.035L65.9687 110.861Z" fill="#6C63FF"/>
<path d="M52.0813 100.414L51.8291 109.65C48.3583 115.514 47.9636 118.361 48.9243 119.879L65.0328 114.462L65.2733 113.888L64.1813 109.965L65.5324 105.707C65.7703 105.262 69.0002 102.529 65.9724 97.3437L59.8814 89.1382L57.6793 88.9609C56.8747 91.026 55.6477 92.0507 54.1981 92.5268C50.92 95.5314 51.4016 96.0203 52.0813 100.414Z" fill="#EC7E41"/>
<path d="M64.3829 78.4015C64.2982 78.6413 64.1649 78.861 63.9915 79.047C63.818 79.233 63.608 79.3813 63.3747 79.4825C63.0025 79.1313 62.5999 78.8138 62.1717 78.5336C62.3578 78.9115 62.5103 79.305 62.6275 79.7096C62.619 79.7113 62.6122 79.7113 62.6037 79.7129C61.8311 79.8163 61.0551 79.6248 60.2993 79.4351L60.4044 79.5316C60.4109 80.1374 60.2443 80.7325 59.9244 81.2469C59.6045 81.7613 59.1444 82.1738 58.5982 82.4359C57.9932 82.7137 57.1952 82.9069 57.0461 83.5542C56.9139 84.1269 57.4104 84.6403 57.8882 84.9809C58.366 85.3215 58.9252 85.6942 59.0031 86.2771C59.1285 87.226 57.9119 87.8275 57.7052 88.7611C57.5256 89.5609 58.1441 90.3234 58.8235 90.7808C59.503 91.2383 60.3027 91.5535 60.828 92.1838C61.7582 93.3004 61.4583 95.0813 60.4993 96.1742C60.3955 96.2932 60.2846 96.4058 60.1672 96.5114C59.9046 96.1796 59.6174 95.8681 59.3081 95.5794C58.9359 95.2282 58.5333 94.9107 58.1051 94.6306C58.2912 95.0084 58.4437 95.4019 58.5609 95.8065C58.7139 96.3256 58.8111 96.8595 58.8506 97.3992C58.1599 97.7272 57.4355 97.9789 56.6902 98.1498C54.814 98.609 52.8834 98.8075 50.953 98.7395C50.0712 98.7258 49.1945 98.6017 48.3436 98.3701C48.7331 97.1392 48.8471 95.8376 48.6774 94.5577C48.1947 95.6824 47.4478 96.674 46.5 97.4484C45.7054 96.8231 45.1157 95.9369 45.0174 94.9389C44.8971 93.7122 45.5139 92.5397 46.1984 91.5145C46.8847 90.4894 47.6743 89.4897 47.9759 88.2951C48.4164 86.5533 47.7437 84.742 47.6573 82.9476C47.6026 81.8191 47.7815 80.6916 48.1827 79.6354C48.584 78.5793 49.199 77.6175 49.9892 76.81C50.7794 76.0026 51.7279 75.3671 52.7751 74.9432C53.8223 74.5193 54.9458 74.3163 56.0752 74.3467C57.0932 74.4064 58.1035 74.5606 59.0929 74.8076C59.6301 74.9228 60.1655 75.0397 60.7026 75.155C61.3668 75.2781 62.018 75.4631 62.6478 75.7074C63.1968 75.9216 63.6792 76.2777 64.0457 76.7392C64.2259 76.9717 64.3501 77.2426 64.4086 77.5309C64.4671 77.8192 64.4583 78.1171 64.3829 78.4015Z" fill="#2F2E41"/>
<path d="M135.11 112.27H43.0685V112.168C43.0697 111.062 43.5093 110.003 44.2908 109.221C45.0723 108.44 46.1319 108 47.2371 107.999H130.941C132.046 108 133.106 108.44 133.887 109.221C134.669 110.003 135.109 111.062 135.11 112.168V112.27Z" fill="#CCCCCC"/>
<path d="M141.918 155.133L140.5 155.714L128.944 111.627L130.363 111.045L141.918 155.133Z" fill="#CCCCCC"/>
<path d="M120.98 155.133L122.399 155.714L133.955 111.627L132.536 111.045L120.98 155.133Z" fill="#CCCCCC"/>
<path d="M57.0284 155.133L55.6096 155.714L44.0541 111.627L45.4728 111.045L57.0284 155.133Z" fill="#CCCCCC"/>
<path d="M36.0903 155.133L37.5091 155.714L49.0646 111.627L47.6459 111.045L36.0903 155.133Z" fill="#CCCCCC"/>
<path d="M99.5903 104.773C99.6179 104.69 99.6274 104.602 99.6181 104.515C99.6089 104.428 99.5812 104.344 99.5368 104.269C99.4924 104.194 99.4324 104.129 99.3608 104.079C99.2893 104.029 99.2078 103.994 99.1219 103.978C99.0901 103.972 99.0577 103.968 99.0253 103.966L95.108 103.865C95.0202 103.864 94.9331 103.882 94.8524 103.917C94.7717 103.952 94.6992 104.003 94.6395 104.067C94.5847 104.056 94.5287 104.05 94.4726 104.05C94.3506 104.047 94.2292 104.068 94.1153 104.112C94.0013 104.155 93.8972 104.221 93.8087 104.305C93.7202 104.389 93.6492 104.49 93.5996 104.601C93.5501 104.713 93.523 104.833 93.5199 104.955C93.5169 105.077 93.5379 105.199 93.5818 105.312C93.6257 105.426 93.6916 105.53 93.7757 105.619C93.8599 105.707 93.9606 105.778 94.0722 105.828C94.1838 105.877 94.304 105.904 94.426 105.907C94.5663 105.91 94.7055 105.881 94.8334 105.823L95.1938 109.677C95.2284 109.803 95.3031 109.915 95.4068 109.996C95.5104 110.077 95.6374 110.122 95.7687 110.124L98.3153 110.19C98.4456 110.192 98.5734 110.153 98.6801 110.078C98.7869 110.004 98.8673 109.897 98.9096 109.774L99.5903 104.773ZM94.4341 105.641C94.2583 105.637 94.0915 105.562 93.9703 105.435C93.8491 105.308 93.7833 105.137 93.7875 104.962C93.7916 104.786 93.8652 104.619 93.9923 104.497C94.1193 104.376 94.2894 104.309 94.4652 104.313C94.4777 104.313 94.4886 104.319 94.5011 104.319C94.4732 104.425 94.4739 104.537 94.503 104.643L94.7595 105.562C94.6603 105.617 94.5478 105.645 94.4341 105.641Z" fill="#273E56"/>
<path d="M99.1218 103.979C99.0383 104.456 98.1001 104.791 96.9718 104.733C95.9344 104.685 95.0861 104.321 94.9307 103.889C94.9882 103.872 95.048 103.864 95.108 103.865L99.0252 103.967C99.0577 103.968 99.09 103.972 99.1218 103.979Z" fill="white"/>
<path d="M86.5433 103.247C86.5709 103.165 86.5804 103.077 86.5711 102.99C86.5619 102.903 86.5342 102.819 86.4898 102.744C86.4454 102.668 86.3854 102.604 86.3138 102.553C86.2422 102.503 86.1608 102.469 86.0749 102.453C86.0431 102.446 86.0107 102.442 85.9782 102.441L82.061 102.34C81.9731 102.339 81.886 102.357 81.8053 102.391C81.7246 102.426 81.6521 102.477 81.5925 102.542C81.5376 102.53 81.4817 102.524 81.4256 102.525C81.1795 102.519 80.9411 102.611 80.7629 102.78C80.5846 102.95 80.481 103.184 80.4748 103.43C80.4686 103.676 80.5604 103.914 80.7299 104.093C80.8995 104.271 81.1329 104.375 81.379 104.382C81.5193 104.384 81.6585 104.356 81.7864 104.298L82.1467 108.151C82.1814 108.278 82.2561 108.39 82.3598 108.471C82.4634 108.551 82.5903 108.596 82.7217 108.599L85.2682 108.664C85.3986 108.667 85.5263 108.628 85.6331 108.553C85.7399 108.478 85.8202 108.371 85.8626 108.248L86.5433 103.247ZM81.3871 104.116C81.2113 104.111 81.0445 104.037 80.9233 103.91C80.8021 103.782 80.7363 103.612 80.7404 103.436C80.7446 103.26 80.8182 103.093 80.9453 102.972C81.0723 102.85 81.2424 102.784 81.4182 102.788C81.4307 102.788 81.4416 102.793 81.4541 102.794C81.4262 102.9 81.4269 103.012 81.456 103.118L81.7125 104.036C81.6133 104.092 81.5008 104.119 81.3871 104.116Z" fill="#273E56"/>
<path d="M86.0748 102.453C85.9914 102.93 85.0531 103.266 83.9248 103.207C82.8874 103.16 82.0391 102.795 81.8837 102.364C81.9412 102.347 82.001 102.339 82.061 102.34L85.9782 102.441C86.0107 102.442 86.043 102.446 86.0748 102.453Z" fill="white"/>
<path d="M84.6227 109.744C84.3729 109.851 84.1027 109.901 83.8313 109.892C83.5599 109.882 83.2939 109.814 83.052 109.69C82.81 109.567 82.5981 109.392 82.431 109.178C82.264 108.964 82.1459 108.716 82.0851 108.451L75.5229 107.739L77.7094 105.096L83.6057 106.178C84.057 106.105 84.5194 106.2 84.9051 106.446C85.2908 106.691 85.5731 107.07 85.6985 107.509C85.8238 107.949 85.7835 108.419 85.5853 108.831C85.387 109.243 85.0445 109.568 84.6227 109.744Z" fill="#FFB6B6"/>
<path d="M65.4647 108.737L52.5539 99.868C51.5313 99.1638 50.8298 98.0828 50.6033 96.8621C50.3767 95.6413 50.6437 94.3806 51.3456 93.3564C51.7348 92.7899 52.244 92.3159 52.837 91.9683C53.43 91.6206 54.0923 91.4078 54.7768 91.3449C55.4613 91.2819 56.1513 91.3705 56.7977 91.6042C57.4442 91.8379 58.0313 92.2111 58.5173 92.6972L68.3493 102.532L80.3464 104.449L80.4508 108.334L65.4647 108.737Z" fill="#EC7E41"/>
<path d="M179.832 156L0.243092 156.063C0.178749 156.062 0.117108 156.037 0.0716768 155.991C0.0262459 155.946 0.000732422 155.884 0.000732422 155.819C0.000732422 155.755 0.0262459 155.693 0.0716768 155.648C0.117108 155.602 0.178749 155.577 0.243092 155.576L179.832 155.514C179.897 155.514 179.958 155.539 180.004 155.585C180.05 155.63 180.075 155.692 180.075 155.757C180.075 155.821 180.05 155.883 180.004 155.929C179.958 155.974 179.897 156 179.832 156Z" fill="#CACACA"/>
<path d="M94.1109 27.461C98.129 27.461 101.386 24.2037 101.386 20.1856C101.386 16.1675 98.129 12.9102 94.1109 12.9102C90.0928 12.9102 86.8354 16.1675 86.8354 20.1856C86.8354 24.2037 90.0928 27.461 94.1109 27.461Z" fill="#FFAF59"/>
<path d="M110.395 16.7408C109.974 15.3312 108.785 14.4111 107.349 14.2092C107.333 14.207 107.318 14.2099 107.302 14.2089C107.282 14.2027 107.261 14.1979 107.24 14.1946C105.205 13.9466 103.146 14.3948 101.399 15.4661C99.7145 16.5174 97.7526 16.9929 95.7688 17.0702C95.7571 17.0706 95.7454 17.0712 95.7337 17.0717C94.9964 17.1209 94.2921 17.396 93.7168 17.8598C93.1414 18.3235 92.723 18.9533 92.5184 19.6634C92.4966 19.7503 92.5031 19.8419 92.5368 19.9249C92.5706 20.0079 92.6299 20.078 92.7062 20.125C92.926 20.3112 93.1863 20.4433 93.4663 20.5108C94.0706 20.6388 94.677 20.7561 95.2855 20.8626C96.4729 21.0704 97.6666 21.2384 98.8664 21.3666C101.302 21.6276 103.753 21.7202 106.201 21.6438C107.016 21.6184 107.803 21.5914 108.55 21.2315C109.094 20.963 109.558 20.5578 109.897 20.0556C110.217 19.5729 110.428 19.026 110.514 18.4533C110.6 17.8806 110.559 17.2961 110.395 16.7408Z" fill="#F0F0F0"/>
<path d="M138.161 43.3271C138.501 43.8293 138.965 44.2345 139.509 44.503C140.256 44.8629 141.042 44.8899 141.858 44.9153C144.306 44.9917 146.757 44.8991 149.192 44.6381C150.391 44.5095 151.584 44.3415 152.773 44.1341C153.382 44.0276 153.988 43.9104 154.592 43.7823C154.872 43.7148 155.133 43.5827 155.352 43.3965C155.429 43.3495 155.488 43.2794 155.522 43.1964C155.556 43.1134 155.562 43.0218 155.54 42.9349C155.336 42.2248 154.917 41.595 154.342 41.1313C153.767 40.6675 153.062 40.3924 152.325 40.3432C152.313 40.3426 152.302 40.3421 152.29 40.3417C150.306 40.2644 148.344 39.7889 146.66 38.7376C144.912 37.6663 142.853 37.2181 140.819 37.4661C140.798 37.4694 140.777 37.4742 140.756 37.4804C140.741 37.4814 140.726 37.4785 140.71 37.4807C139.273 37.6826 138.085 38.6027 137.664 40.0122C137.5 40.5676 137.459 41.1521 137.545 41.7248C137.631 42.2975 137.841 42.8444 138.161 43.3271Z" fill="#F0F0F0"/>
<path d="M95.2734 26.4409C94.8525 25.0314 93.6637 24.1113 92.2273 23.9094C92.2114 23.9072 92.1964 23.9101 92.1807 23.9091C92.1604 23.9029 92.1396 23.8981 92.1186 23.8948C90.0837 23.6468 88.0248 24.095 86.2771 25.1664C84.5931 26.2177 82.6312 26.6932 80.6475 26.7704C80.6358 26.7708 80.624 26.7714 80.6123 26.7719C79.8749 26.8211 79.1706 27.0963 78.5953 27.56C78.02 28.0237 77.6015 28.6535 77.3969 29.3636C77.3751 29.4505 77.3816 29.5421 77.4154 29.6251C77.4492 29.7081 77.5085 29.7782 77.5848 29.8252C77.8045 30.0114 78.0648 30.1435 78.3449 30.211C78.9491 30.339 79.5555 30.4563 80.164 30.5628C81.3515 30.7706 82.5451 30.9386 83.745 31.0668C86.1806 31.3278 88.6313 31.4205 91.0796 31.3441C91.895 31.3186 92.6814 31.2916 93.4286 30.9317C93.9721 30.6632 94.4365 30.258 94.7761 29.7558C95.096 29.2731 95.3063 28.7262 95.3922 28.1535C95.4781 27.5808 95.4376 26.9963 95.2734 26.4409Z" fill="#F0F0F0"/>
</g>
<defs>
<clipPath id="clip0_196_587">
<rect width="180.075" height="156.062" fill="white"/>
</clipPath>
</defs>
</svg>
