<svg width="30" height="30" viewBox="0 0 30 30" fill="none" xmlns="http://www.w3.org/2000/svg">
<path d="M16.503 3.58217C16.09 3.21112 15.5544 3.00586 14.9993 3.00586C14.4441 3.00586 13.9085 3.21112 13.4955 3.58217L5.2455 10.9952C5.01093 11.2061 4.82335 11.464 4.69491 11.7522C4.56648 12.0403 4.50007 12.3522 4.5 12.6677V23.2502C4.5 23.8469 4.73705 24.4192 5.15901 24.8412C5.58097 25.2631 6.15326 25.5002 6.75 25.5002H9.75C10.3467 25.5002 10.919 25.2631 11.341 24.8412C11.7629 24.4192 12 23.8469 12 23.2502V17.2502C12 17.0513 12.079 16.8605 12.2197 16.7198C12.3603 16.5792 12.5511 16.5002 12.75 16.5002H17.25C17.4489 16.5002 17.6397 16.5792 17.7803 16.7198C17.921 16.8605 18 17.0513 18 17.2502V23.2502C18 23.8469 18.2371 24.4192 18.659 24.8412C19.081 25.2631 19.6533 25.5002 20.25 25.5002H23.25C23.8467 25.5002 24.419 25.2631 24.841 24.8412C25.2629 24.4192 25.5 23.8469 25.5 23.2502V12.6677C25.4999 12.3522 25.4335 12.0403 25.3051 11.7522C25.1767 11.464 24.9891 11.2061 24.7545 10.9952L16.5045 3.58217H16.503Z" fill="#273E56"/>
</svg>
