<svg width="109" height="265" viewBox="0 0 109 265" fill="none" xmlns="http://www.w3.org/2000/svg">
<path d="M94.0509 143.282C92.9854 143.282 92.108 142.937 91.4186 142.248C90.7291 141.558 90.3844 140.681 90.3844 139.616C90.3844 138.55 90.7291 137.673 91.4186 136.983C92.108 136.294 92.9854 135.949 94.0509 135.949C95.0537 135.949 95.8998 136.294 96.5892 136.983C97.2786 137.673 97.6233 138.55 97.6233 139.616C97.6233 140.681 97.2786 141.558 96.5892 142.248C95.8998 142.937 95.0537 143.282 94.0509 143.282Z" fill="#273E56"/>
<path d="M67.1271 121.961C70.4697 121.961 73.1856 123.023 75.2748 125.147C77.3987 127.236 78.4607 130.283 78.4607 134.287V151H74.8569V134.705C74.8569 131.606 74.1083 129.238 72.6111 127.601C71.1139 125.965 69.0769 125.147 66.5003 125.147C63.8192 125.147 61.6778 126.035 60.0762 127.81C58.4745 129.586 57.6736 132.163 57.6736 135.54V151H54.0698V134.705C54.0698 131.606 53.3212 129.238 51.824 127.601C50.3268 125.965 48.2724 125.147 45.661 125.147C42.9799 125.147 40.8385 126.035 39.2369 127.81C37.6352 129.586 36.8343 132.163 36.8343 135.54V151H33.1783V122.483H36.8343V127.393C37.7396 125.617 39.0279 124.276 40.6993 123.371C42.3706 122.431 44.2334 121.961 46.2877 121.961C48.7599 121.961 50.9187 122.553 52.7641 123.737C54.6444 124.92 56.0023 126.661 56.838 128.959C57.604 126.696 58.9097 124.973 60.7551 123.789C62.6354 122.57 64.7593 121.961 67.1271 121.961Z" fill="#EC7E41"/>
<path d="M8.48518 145.741C8.48518 135.723 10.4886 127.002 14.4955 119.578C18.5024 112.036 24.0413 106.261 31.1123 102.254C38.1833 98.1293 46.256 96.0669 55.3304 96.0669C67.2332 96.0669 77.0148 99.0132 84.675 104.906C92.4531 110.798 97.4617 118.812 99.7008 128.947H86.4427C84.7928 121.994 81.1984 116.573 75.6595 112.684C70.2384 108.677 63.4621 106.673 55.3304 106.673C48.8487 106.673 43.0151 108.147 37.8298 111.093C32.6444 114.039 28.5196 118.458 25.4555 124.351C22.5093 130.125 21.0362 137.255 21.0362 145.741C21.0362 154.226 22.5093 161.415 25.4555 167.307C28.5196 173.2 32.6444 177.619 37.8298 180.565C43.0151 183.511 48.8487 184.984 55.3304 184.984C63.4621 184.984 70.2384 183.04 75.6595 179.151C81.1984 175.144 84.7928 169.605 86.4427 162.534H99.7008C97.4617 172.434 92.4531 180.388 84.675 186.399C76.8969 192.409 67.1154 195.414 55.3304 195.414C46.256 195.414 38.1833 193.411 31.1123 189.404C24.0413 185.279 18.5024 179.504 14.4955 172.08C10.4886 164.538 8.48518 155.758 8.48518 145.741Z" fill="#273E56"/>
</svg>
