<svg width="46" height="46" viewBox="0 0 46 46" fill="none" xmlns="http://www.w3.org/2000/svg">
<g clip-path="url(#clip0_444_2807)">
<path d="M42.1799 22.722C42.1799 22.8907 42.1781 23.0584 42.1728 23.2253C42.0468 28.1161 40.0834 32.695 36.6112 36.1665C33.0209 39.7577 28.2457 41.7353 23.1669 41.7353C18.0879 41.7353 13.3128 39.7577 9.72237 36.1665C6.25029 32.6951 4.28695 28.1159 4.16091 23.2253C4.15541 23.0584 4.15381 22.8907 4.15381 22.722C4.15381 17.6433 6.13118 12.8689 9.72237 9.27772C13.3128 5.68653 18.0881 3.70898 23.1669 3.70898C28.2457 3.70898 33.0209 5.68653 36.6112 9.27772C40.2024 12.8689 42.1799 17.6433 42.1799 22.722Z" fill="#FFAF59"/>
<path d="M36.6112 9.27772C33.0209 5.68653 28.2457 3.70898 23.1669 3.70898C18.0879 3.70898 13.3128 5.68653 9.72237 9.27772C6.13136 12.8689 4.15381 17.6433 4.15381 22.722C4.15381 22.8907 4.15558 23.0584 4.16091 23.2253C4.28695 28.1161 6.25029 32.695 9.72237 36.1665C13.3127 39.7577 18.0879 41.7353 23.1669 41.7353C28.2457 41.7353 33.0209 39.7577 36.6112 36.1665C40.0834 32.6953 42.0468 28.1161 42.1728 23.2253C42.1782 23.0584 42.1799 22.8907 42.1799 22.722C42.1799 17.6433 40.2024 12.8689 36.6112 9.27772ZM23.1669 40.8477C14.7701 40.8477 7.68908 35.1083 5.63946 27.3466C5.24909 25.8703 5.0414 24.3197 5.0414 22.722C5.0414 12.7278 13.1726 4.59657 23.1669 4.59657C33.1611 4.59657 41.2923 12.7278 41.2923 22.722C41.2923 24.3197 41.0845 25.8705 40.6941 27.3466C38.6446 35.1083 31.5635 40.8477 23.1669 40.8477Z" fill="#FFAF59"/>
<path d="M28.5346 31.1992H17.7993V32.0868H28.5346V31.1992Z" fill="#273E56"/>
<path d="M19.5133 18.3457H15.2021V19.2333H19.5133V18.3457Z" fill="#273E56"/>
<path d="M31.1315 18.3457H26.8204V19.2333H31.1315V18.3457Z" fill="#273E56"/>
</g>
<defs>
<clipPath id="clip0_444_2807">
<rect width="45.4446" height="45.4446" fill="white" transform="translate(0.44458)"/>
</clipPath>
</defs>
</svg>
