<svg width="298" height="175" viewBox="0 0 298 175" fill="none" xmlns="http://www.w3.org/2000/svg">
<g clip-path="url(#clip0_336_5455)">
<path d="M48.1148 19.9053C45.7289 19.908 43.4415 20.8569 41.7545 22.544C40.0674 24.2311 39.1184 26.5185 39.1157 28.9044V126.739C39.1184 129.125 40.0674 131.413 41.7545 133.1C43.4415 134.787 45.7289 135.736 48.1148 135.739H250.902C253.288 135.736 255.575 134.787 257.262 133.1C258.949 131.413 259.898 129.125 259.901 126.739V28.9043C259.898 26.5185 258.949 24.2311 257.262 22.544C255.575 20.8569 253.288 19.908 250.902 19.9053H48.1148Z" fill="white"/>
<path d="M250.902 136.089H48.1149C45.6359 136.086 43.2593 135.1 41.5065 133.347C39.7536 131.594 38.7676 129.218 38.7648 126.739V28.9038C38.7676 26.4249 39.7536 24.0483 41.5065 22.2954C43.2593 20.5425 45.6359 19.5565 48.1149 19.5537H250.902C253.381 19.5565 255.757 20.5425 257.51 22.2954C259.263 24.0483 260.249 26.4249 260.252 28.9038V126.739C260.249 129.218 259.263 131.594 257.51 133.347C255.757 135.1 253.381 136.086 250.902 136.089ZM48.1149 20.2557C45.822 20.2583 43.6239 21.1703 42.0026 22.7915C40.3813 24.4128 39.4694 26.611 39.4668 28.9038V126.739C39.4694 129.032 40.3813 131.23 42.0026 132.851C43.6239 134.472 45.822 135.384 48.1149 135.387H250.902C253.195 135.384 255.393 134.472 257.014 132.851C258.635 131.23 259.547 129.032 259.55 126.739V28.9038C259.547 26.611 258.635 24.4128 257.014 22.7915C255.393 21.1703 253.195 20.2583 250.902 20.2557H48.1149Z" fill="#3F3D56"/>
<path d="M106.627 130.611C106.643 130.218 105.439 129.851 103.939 129.792C102.439 129.732 101.21 130.002 101.194 130.395C101.179 130.788 102.382 131.155 103.883 131.214C105.383 131.274 106.612 131.004 106.627 130.611Z" fill="#E6E6E6"/>
<path d="M123.933 129.693C123.949 129.3 122.745 128.933 121.245 128.874C119.744 128.814 118.516 129.084 118.5 129.477C118.484 129.87 119.688 130.237 121.188 130.296C122.689 130.356 123.917 130.086 123.933 129.693Z" fill="#3F3D56"/>
<path d="M99.978 125.27C99.9936 124.877 98.7901 124.51 97.2898 124.451C95.7895 124.391 94.5606 124.661 94.5451 125.054C94.5295 125.447 95.733 125.814 97.2333 125.873C98.7336 125.933 99.9625 125.663 99.978 125.27Z" fill="#FF6584"/>
<path d="M91.6195 123.32C91.6595 122.969 91.1539 122.623 90.4902 122.548C89.8265 122.472 89.2561 122.695 89.2162 123.046C89.1762 123.396 89.6818 123.742 90.3455 123.818C91.0091 123.893 91.5795 123.67 91.6195 123.32Z" fill="#E6E6E6"/>
<path d="M87.6257 119.228C87.6657 118.877 87.1601 118.531 86.4964 118.456C85.8327 118.38 85.2623 118.603 85.2224 118.954C85.1824 119.305 85.688 119.65 86.3517 119.726C87.0153 119.801 87.5857 119.578 87.6257 119.228Z" fill="#3F3D56"/>
<path d="M110.196 126.193C110.236 125.842 109.73 125.496 109.067 125.421C108.403 125.345 107.833 125.568 107.793 125.919C107.753 126.269 108.258 126.615 108.922 126.691C109.586 126.766 110.156 126.543 110.196 126.193Z" fill="#E6E6E6"/>
<path d="M102.276 127.934C102.316 127.583 101.81 127.237 101.146 127.162C100.483 127.086 99.9123 127.309 99.8723 127.66C99.8324 128.011 100.338 128.356 101.002 128.432C101.665 128.508 102.236 128.284 102.276 127.934Z" fill="#FF6584"/>
<path d="M115.087 130.737C115.126 130.387 114.621 130.041 113.957 129.966C113.294 129.89 112.723 130.113 112.683 130.464C112.643 130.814 113.149 131.16 113.812 131.236C114.476 131.311 115.047 131.088 115.087 130.737Z" fill="#3F3D56"/>
<path d="M1.84877e-06 116.223C-0.000161746 116.278 0.0105334 116.333 0.0314683 116.383C0.0524031 116.434 0.0831678 116.48 0.12199 116.519C0.160812 116.558 0.206924 116.589 0.257678 116.61C0.308433 116.631 0.362825 116.641 0.417726 116.641H296.772C296.883 116.641 296.989 116.597 297.067 116.519C297.146 116.44 297.19 116.334 297.19 116.223C297.19 116.113 297.146 116.006 297.067 115.928C296.989 115.85 296.883 115.806 296.772 115.806H0.417705C0.362806 115.806 0.308419 115.816 0.257668 115.837C0.206917 115.858 0.160804 115.889 0.121984 115.928C0.083165 115.966 0.0524025 116.013 0.0314683 116.063C0.0105341 116.114 -0.000159869 116.168 1.84877e-06 116.223Z" fill="#CCCCCC"/>
<path d="M101.297 108.844C101.096 108.853 100.896 108.8 100.725 108.692C100.554 108.584 100.421 108.426 100.343 108.24C100.265 108.053 100.246 107.847 100.289 107.65C100.332 107.452 100.435 107.273 100.583 107.136L100.651 106.867C100.642 106.846 100.633 106.824 100.624 106.803C100.421 106.323 100.08 105.913 99.6446 105.626C99.2093 105.339 98.6988 105.186 98.1772 105.188C97.6557 105.19 97.1463 105.346 96.7132 105.637C96.28 105.927 95.9423 106.339 95.7426 106.821C94.9442 108.744 93.9277 110.67 93.6774 112.703C93.5672 113.602 93.6137 114.513 93.8148 115.396C91.9397 111.305 90.966 106.859 90.9597 102.36C90.9593 101.23 91.022 100.102 91.1476 98.9799C91.2514 98.06 91.3954 97.1466 91.5795 96.2398C92.5846 91.3193 94.7425 86.7075 97.876 82.783C99.3926 81.9555 100.619 80.683 101.39 79.1369C101.67 78.5812 101.867 77.9879 101.976 77.3756C101.805 77.398 101.331 74.7925 101.46 74.6326C101.222 74.2708 100.795 74.091 100.535 73.7379C99.2398 71.9822 97.4556 72.2887 96.5242 74.6747C94.5344 75.6789 94.5151 77.3444 95.736 78.9462C96.5128 79.9653 96.6195 81.3442 97.3011 82.4352C97.2309 82.5249 97.158 82.6119 97.0879 82.7017C95.8061 84.3498 94.689 86.1196 93.7525 87.9857C93.9803 85.8951 93.7084 83.7804 92.9594 81.8154C92.2003 79.9841 90.7774 78.4417 89.5244 76.8586C88.0194 74.957 84.9331 75.7869 84.668 78.1975C84.6654 78.2208 84.6629 78.2441 84.6604 78.2675C84.8465 78.3725 85.0287 78.4839 85.207 78.6018C85.4309 78.7514 85.6044 78.9652 85.7048 79.2151C85.8052 79.465 85.8277 79.7394 85.7694 80.0023C85.7112 80.2653 85.5749 80.5045 85.3783 80.6886C85.1818 80.8728 84.9342 80.9932 84.6681 81.0343L84.6408 81.0385C84.7071 81.7092 84.8243 82.374 84.9914 83.027C83.3839 89.2434 86.8543 91.5076 91.8095 91.6093C91.9189 91.6654 92.0255 91.7215 92.1349 91.7748C91.194 94.4412 90.6038 97.2186 90.3792 100.037C90.252 101.7 90.2595 103.371 90.4016 105.032L90.3932 104.974C90.0341 103.126 89.0484 101.458 87.6025 100.253C85.455 98.4891 82.4209 97.8395 80.104 96.4214C79.8578 96.2634 79.5715 96.179 79.2789 96.1783C78.9863 96.1776 78.6996 96.2605 78.4526 96.4174C78.2056 96.5743 78.0086 96.7985 77.8849 97.0637C77.7612 97.3289 77.7159 97.6239 77.7543 97.9139C77.7574 97.9346 77.7606 97.9552 77.7638 97.9759C78.1091 98.1165 78.4454 98.2786 78.7706 98.4611C78.9568 98.5661 79.1389 98.6775 79.3172 98.7954C79.5411 98.945 79.7146 99.1588 79.815 99.4087C79.9153 99.6586 79.9379 99.933 79.8796 100.196C79.8214 100.459 79.6851 100.698 79.4885 100.882C79.292 101.066 79.0444 101.187 78.7783 101.228L78.751 101.232C78.7314 101.235 78.7145 101.238 78.6949 101.24C79.285 102.649 80.1133 103.946 81.1434 105.074C82.1485 110.501 86.4654 111.016 91.0831 109.436H91.0859C91.5926 111.637 92.3267 113.78 93.2764 115.83H101.101C101.129 115.743 101.155 115.654 101.18 115.567C100.456 115.612 99.7285 115.569 99.0147 115.438C99.5952 114.725 100.176 114.007 100.756 113.295C100.769 113.282 100.782 113.268 100.793 113.253C101.087 112.888 101.385 112.526 101.679 112.162L101.679 112.161C101.695 111.044 101.566 109.929 101.297 108.844Z" fill="#A6B8FF"/>
<path d="M62.2345 104.502C61.9072 104.517 61.5833 104.431 61.3064 104.256C61.0296 104.08 60.8134 103.824 60.687 103.522C60.5606 103.22 60.5302 102.886 60.5999 102.566C60.6696 102.246 60.8359 101.955 61.0765 101.732C61.1168 101.572 61.1457 101.457 61.186 101.297C61.1716 101.262 61.1571 101.228 61.1425 101.193C60.8128 100.414 60.2603 99.75 59.5545 99.2842C58.8487 98.8185 58.021 98.5717 57.1753 98.5748C56.3296 98.5779 55.5038 98.8309 54.8014 99.3019C54.0991 99.7729 53.5516 100.441 53.2277 101.222C51.9331 104.34 50.285 107.463 49.8792 110.76C49.7005 112.217 49.7759 113.694 50.102 115.125C47.0616 108.493 45.4827 101.284 45.4726 93.9882C45.4719 92.1573 45.5737 90.3278 45.7773 88.5083C45.9455 87.0167 46.179 85.5357 46.4776 84.0653C48.1072 76.0872 51.6061 68.6095 56.6869 62.2462C59.146 60.9044 61.1346 58.8411 62.385 56.3343C62.8379 55.4332 63.1581 54.4713 63.3354 53.4785C63.058 53.5149 62.2895 49.2901 62.4987 49.0309C62.1121 48.4443 61.4202 48.1527 60.998 47.5803C58.8982 44.7334 56.0052 45.2305 54.4949 49.0992C51.2687 50.7275 51.2374 53.4279 53.2171 56.0251C54.4765 57.6774 54.6496 59.9133 55.7546 61.6822C55.6409 61.8278 55.5227 61.9688 55.409 62.1143C53.3308 64.7867 51.5194 67.6563 50.0009 70.682C50.3702 67.2923 49.9295 63.8634 48.715 60.6773C47.4841 57.7079 45.1771 55.2072 43.1454 52.6402C40.7051 49.5569 35.7009 50.9025 35.271 54.8111C35.2668 54.849 35.2627 54.8868 35.2588 54.9246C35.5605 55.0948 35.8559 55.2755 36.145 55.4667C36.508 55.7093 36.7894 56.0559 36.9521 56.4611C37.1148 56.8663 37.1514 57.3112 37.0569 57.7376C36.9625 58.1639 36.7414 58.5518 36.4228 58.8503C36.1041 59.1489 35.7027 59.3442 35.2711 59.4108L35.2269 59.4176C35.3344 60.5052 35.5245 61.583 35.7954 62.6418C33.189 72.7213 38.816 76.3924 46.8505 76.5574C47.0278 76.6483 47.2007 76.7392 47.378 76.8257C45.8524 81.1491 44.8955 85.6525 44.5313 90.2228C44.3251 92.9191 44.3372 95.6276 44.5676 98.322L44.554 98.2265C43.9719 95.2304 42.3736 92.5271 40.0291 90.5729C36.547 87.7125 31.6275 86.6592 27.8709 84.36C26.0626 83.2532 23.7454 84.6835 24.061 86.7799C24.066 86.8134 24.0711 86.8469 24.0763 86.8803C24.6363 87.1084 25.1816 87.3711 25.7089 87.667C26.0107 87.8373 26.306 88.018 26.5951 88.2091C26.9582 88.4517 27.2395 88.7983 27.4022 89.2035C27.565 89.6087 27.6015 90.0537 27.507 90.48C27.4126 90.9063 27.1915 91.2942 26.8729 91.5928C26.5542 91.8913 26.1528 92.0867 25.7213 92.1532L25.677 92.16C25.6452 92.1646 25.6179 92.1692 25.5861 92.1737C26.5429 94.4583 27.8859 96.5612 29.5561 98.3902C31.1858 107.189 38.1853 108.024 45.6727 105.462H45.6772C46.4987 109.031 47.689 112.506 49.2289 115.83H61.9165C61.962 115.689 62.003 115.544 62.0439 115.403C60.8695 115.476 59.6905 115.406 58.5331 115.193C59.4745 114.038 60.4158 112.874 61.3572 111.719C61.3782 111.697 61.3979 111.675 61.4163 111.651C61.8938 111.06 62.3759 110.473 62.8534 109.882L62.8536 109.881C62.8791 108.069 62.6711 106.261 62.2349 104.502L62.2345 104.502Z" fill="#A6B8FF"/>
<path d="M235.875 6.3318C235.023 -0.196905 219.964 0.219566 218.542 6.36202C217.788 5.89026 215.869 6.21679 215.154 6.75904C214.438 7.3013 213.979 8.09845 213.53 8.87227C212.917 9.94706 212.282 11.0603 212.146 12.2927C212.005 13.5226 212.488 14.916 213.603 15.4636C214.488 15.9001 216.434 15.6054 217.407 15.41C218.085 15.2751 218.655 15.1569 219.138 15.041C219.3 14.2765 219.188 13.4793 218.822 12.7892C219.212 12.8668 219.581 13.0299 219.901 13.2668C220.221 13.5036 220.485 13.8085 220.674 14.1594C220.75 14.3063 223.509 35.0745 223.509 35.0745C224.263 35.1654 225.024 35.1844 225.782 35.1312C226.252 32.5753 226.338 29.9634 226.036 27.3821C226.835 28.8575 227.467 30.4173 227.92 32.0327C228.18 32.9362 228.394 33.8524 228.56 34.7777C235.126 33.5499 244.002 29.3209 245.621 22.14C245.612 22.1169 245.604 22.0937 245.595 22.0706C245.506 21.8511 245.497 21.6077 245.568 21.3821C245.639 21.1564 245.786 20.9625 245.985 20.8336C246.183 20.7047 246.42 20.6489 246.656 20.6755C246.891 20.7022 247.109 20.8098 247.274 20.9799C247.472 21.1836 247.648 21.3578 247.797 21.4927C247.222 16.9069 243.743 12.7803 235.875 6.3318Z" fill="#2F2E41"/>
<path d="M140.003 166.226L136.322 164.302L142.159 148.87L147.592 151.711L140.003 166.226Z" fill="#FFB6B6"/>
<path d="M125.149 166.04C124.921 166.477 124.876 166.986 125.023 167.456C125.17 167.926 125.498 168.318 125.934 168.547L133.253 172.373L135.876 170.424L135.006 173.288L137.767 174.733L141.856 165.023L140.924 164.465L137.127 162.178L135.9 161.442L134.523 164.077L126.567 165.058C126.268 165.095 125.984 165.203 125.737 165.374C125.49 165.545 125.288 165.774 125.149 166.04Z" fill="#2F2E41"/>
<path d="M136.232 109.417L133.554 106.241L144.803 94.1719L148.755 98.8593L136.232 109.417Z" fill="#FFB6B6"/>
<path d="M122.556 103.617C122.18 103.935 121.945 104.389 121.903 104.879C121.861 105.37 122.015 105.857 122.332 106.234L127.656 112.548L130.822 111.738L128.932 114.059L130.939 116.443L138.402 109.006L137.751 108.136L135.104 104.581L134.247 103.436L131.975 105.352L124.24 103.245C123.95 103.166 123.645 103.159 123.352 103.223C123.059 103.288 122.785 103.423 122.556 103.617Z" fill="#2F2E41"/>
<path d="M254.318 97.5158C254.318 97.5158 265.686 121.848 218.61 115.291C218.61 115.291 193.529 87.4953 194.253 84.151C194.253 84.151 183.578 73.3039 184.101 73.1064C184.623 72.9089 184.945 72.48 184.082 72.519C183.219 72.5579 183.219 71.2731 183.219 71.2731C183.219 71.2731 163.927 92.1943 147.683 102.576L142.067 96.2578C142.067 96.2578 144.257 89.4064 145.31 89.4064C146.363 89.4064 146.726 89.6595 146.896 88.3044C147.065 86.9493 146.226 85.7857 147.348 85.6655C148.469 85.5453 171.709 58.3842 171.709 58.3842C171.709 58.3842 174.216 49.4381 181.877 51.1697C189.537 52.9013 229.344 85.2647 229.344 85.2647L254.318 97.5158Z" fill="#C7D3C9"/>
<path d="M235.148 116.08L172.956 115.564L145.928 158.387L138.29 154.344L139.983 153.629C139.983 153.629 139.47 147.677 140.098 146.171C140.726 144.664 142.594 145.117 142.594 145.117L158.352 108.777C159.439 105.552 161.574 102.783 164.417 100.911C167.26 99.0393 170.648 98.1729 174.04 98.4498C187.079 96.5482 208.245 98.0676 230.234 99.9335L235.148 116.08Z" fill="#C7D3C9"/>
<path d="M199.14 43.1996C200.324 43.381 201.39 44.0172 202.112 44.9729C202.834 45.9285 203.155 47.1281 203.006 48.3164C202.971 48.5575 202.917 48.7953 202.844 49.0274L215.623 58.7208L212.986 66.9357L196.916 51.7644C195.977 51.3858 195.189 50.7069 194.677 49.8337C194.164 48.9605 193.955 47.9421 194.082 46.9376C194.159 46.3666 194.349 45.8166 194.639 45.3188C194.929 44.8211 195.315 44.3854 195.774 44.0367C196.232 43.6879 196.755 43.4329 197.312 43.2862C197.869 43.1395 198.45 43.104 199.021 43.1817C199.061 43.1871 199.101 43.1931 199.14 43.1996Z" fill="#FFB6B6"/>
<path d="M255.517 43.8051L250.922 56.5257L232.954 81.9178C232.954 81.9178 232.807 81.8546 232.54 81.7423C230.995 81.0753 225.386 78.6253 220.111 75.8418C215.158 73.2268 210.493 70.3169 209.77 68.3161C209.693 68.1055 209.622 67.902 209.559 67.7054V67.7019C209.222 66.683 209.012 65.6269 208.931 64.5568C208.871 63.732 208.924 63.2897 208.812 63.237C208.724 63.1984 208.541 63.388 208.138 63.8162C208.11 63.8443 208.085 63.8724 208.057 63.8969C206.597 65.3607 204.803 65.1711 205.242 64.4761C205.691 63.7635 205.456 63.7776 204.796 63.0334C204.305 62.4788 202.708 60.3096 201.921 59.239C201.651 58.8705 201.479 58.6318 201.479 58.6318L201.749 58.2071L202.497 57.0347L206.053 51.4606L206.249 51.1553C206.249 51.1553 213.557 52.8436 214.53 54.4477C215.505 56.0519 213.059 55.9992 215.505 56.0518C217.952 56.1045 220.448 52.7769 218.661 56.087C216.874 59.3935 217.345 60.5483 219.556 60.0253C220.455 59.8112 221.876 60.4886 223.245 61.3661V61.3697C224.101 61.9259 224.927 62.5269 225.72 63.1703C226.566 63.8513 227.138 64.3673 227.138 64.3673L241.017 36.2092L242.554 33.0923C243.023 32.1438 243.676 31.2983 244.475 30.6052C245.274 29.9121 246.203 29.3853 247.209 29.0557L247.689 29.8946C250.684 34.3041 253.302 38.9573 255.517 43.8051Z" fill="#DA9E96"/>
<path d="M256.286 84.1777C260.54 85.1676 256.014 116.135 250.943 116.232C214.087 116.934 225.309 96.256 223.333 94.2763C221.357 92.2931 219.574 93.7147 221.357 90.6293C222.655 88.3828 224.583 88.7163 224.611 87.4562C224.625 86.9858 224.375 86.2978 223.73 85.1676C221.357 81.0116 221.357 79.7725 221.357 79.7725C220.765 78.5246 220.346 77.2021 220.111 75.8412C219.726 73.8178 219.678 71.7445 219.97 69.7056C220.416 66.7144 221.536 63.8638 223.245 61.3691V61.3656C223.424 61.0988 223.61 60.8285 223.807 60.5618C224.253 59.9545 226.724 60.0704 226.724 60.0704L231.989 37.9567L228.942 29.1394L243.372 22.3789L247.209 29.0551L247.69 29.894C250.684 34.3035 253.302 38.9567 255.517 43.8046C257.648 48.5467 259.399 53.8119 259.462 58.3925C259.631 70.3374 257.57 73.8896 257.57 73.8896C257.57 73.8896 262.572 77.6279 260.07 79.913C257.57 82.2015 252.031 83.1879 256.286 84.1777Z" fill="#DA9E96"/>
<path d="M190.914 40.2893L188.559 42.0778C188.094 42.4334 187.789 42.9589 187.711 43.5391C187.632 44.1192 187.787 44.7068 188.141 45.1732L193.812 52.6264L197.16 57.0236C197.515 57.4879 198.04 57.7926 198.619 57.8709C199.198 57.9492 199.785 57.7947 200.25 57.4413L202.608 55.6506C203.071 55.294 203.374 54.7689 203.452 54.1895C203.53 53.6102 203.376 53.0236 203.023 52.5574L202.676 52.0981L195.806 43.0729L194.004 40.707C193.829 40.4766 193.61 40.283 193.359 40.1372C193.109 39.9915 192.833 39.8965 192.546 39.8578C192.259 39.819 191.967 39.8371 191.687 39.9112C191.407 39.9852 191.144 40.1137 190.914 40.2893Z" fill="#3F3D56"/>
<path d="M192.145 40.1555L189.609 41.9248C189.385 42.0711 189.195 42.2631 189.051 42.4882C188.907 42.7134 188.812 42.9664 188.773 43.2308C188.734 43.4952 188.751 43.7649 188.824 44.022C188.897 44.2792 189.023 44.518 189.195 44.7228L192.515 48.7229L194.284 50.8538L195.464 52.2755L198.104 55.456C198.477 55.8828 198.994 56.1572 199.557 56.2272C200.12 56.2972 200.688 56.1578 201.155 55.8355L203.055 54.5098L203.688 54.0687C204.003 53.8585 204.249 53.5599 204.395 53.2103C204.541 52.8607 204.58 52.4758 204.508 52.1039C204.445 51.7948 204.305 51.5065 204.102 51.2651L196.302 41.8654L195.196 40.535C194.823 40.1077 194.306 39.8328 193.743 39.7628C193.18 39.6928 192.611 39.8326 192.145 40.1555Z" fill="#DA9E96"/>
<path d="M193.766 50.0345C194.95 50.216 196.016 50.8522 196.738 51.8078C197.46 52.7634 197.78 53.963 197.631 55.1514C197.597 55.3924 197.543 55.6303 197.47 55.8624L210.249 65.5557L207.612 73.7707L191.541 58.5994C190.602 58.2207 189.815 57.5418 189.302 56.6686C188.789 55.7954 188.58 54.7771 188.707 53.7725C188.785 53.2016 188.974 52.6515 189.265 52.1538C189.555 51.6561 189.94 51.2204 190.399 50.8716C190.858 50.5228 191.381 50.2678 191.938 50.1211C192.495 49.9744 193.076 49.9389 193.647 50.0166C193.686 50.0221 193.726 50.028 193.766 50.0345Z" fill="#FFB6B6"/>
<path d="M245.885 35.6586C247.002 35.886 248.057 36.3513 248.978 37.0229C249.9 37.6945 250.665 38.5565 251.224 39.5504C251.782 40.5444 252.119 41.6469 252.213 42.7829C252.308 43.919 252.156 45.062 251.769 46.1342L245.549 63.3592L227.578 88.7535C227.578 88.7535 206.026 79.65 204.394 75.1504C202.763 70.6507 204.236 69.0981 202.763 70.6507C201.289 72.2034 199.421 72.0193 199.868 71.3088C200.315 70.5983 200.08 70.6134 199.421 69.8691C198.763 69.1248 196.105 65.4672 196.105 65.4672L200.874 57.9903C200.874 57.9903 208.183 59.6774 209.156 61.2825C210.13 62.8876 207.683 62.8351 210.13 62.8876C212.577 62.9401 215.074 59.6113 213.286 62.9204C211.499 66.2294 211.97 67.3831 214.182 66.8587C216.393 66.3344 221.762 71.2022 221.762 71.2022L237.181 39.9274C237.957 38.3543 239.231 37.0823 240.806 36.31C242.381 35.5378 244.167 35.3087 245.885 35.6586Z" fill="#DA9E96"/>
<path d="M236.689 25.2896C241.157 20.8219 241.157 13.5784 236.689 9.1108C232.222 4.64315 224.978 4.64315 220.511 9.1108C216.043 13.5785 216.043 20.8219 220.511 25.2896C224.978 29.7572 232.222 29.7572 236.689 25.2896Z" fill="#FFB6B6"/>
<path d="M241.977 4.73805C241.126 -1.79065 226.066 -1.37418 224.645 4.76827C223.89 4.29651 221.972 4.62304 221.256 5.16529C220.54 5.70754 220.082 6.5047 219.633 7.27851C219.02 8.35331 214.73 11.9895 214.087 10.9294C212.641 8.54352 209.804 13.757 211.981 17.2475C212.503 18.0845 222.592 16.7409 223.564 16.5455C223.081 16.6614 224.243 16.4106 223.564 16.5455C223.721 15.7883 225.297 11.8758 224.924 11.1955C225.315 11.273 225.683 11.4361 226.004 11.673C226.324 11.9099 226.588 12.2147 226.776 12.5656C226.852 12.7126 229.611 33.4807 229.611 33.4807C230.366 33.5716 231.127 33.5906 231.884 33.5374C232.355 30.9815 232.44 28.3696 232.138 25.7883C232.937 27.2637 233.569 28.8235 234.023 30.4389C234.283 31.3424 234.496 32.2586 234.662 33.1839C241.228 31.9561 250.104 27.7271 251.724 20.5463C242.87 17.5986 249.846 11.1866 241.977 4.73805Z" fill="#2F2E41"/>
<path d="M141.84 37.5453C141.987 36.5368 140.931 35.5483 139.481 35.3374C138.032 35.1265 136.737 35.773 136.591 36.7814C136.444 37.7899 137.5 38.7784 138.95 38.9893C140.4 39.2002 141.694 38.5537 141.84 37.5453Z" fill="#E6E6E6"/>
<path d="M159.1 35.8607C159.247 34.8522 158.191 33.8637 156.741 33.6528C155.291 33.4419 153.997 34.0884 153.85 35.0969C153.704 36.1053 154.76 37.0938 156.21 37.3048C157.659 37.5157 158.953 36.8691 159.1 35.8607Z" fill="#3F3D56"/>
<path d="M137.114 23.5726C137.261 22.5642 136.205 21.5757 134.755 21.3647C133.305 21.1538 132.011 21.8004 131.865 22.8088C131.718 23.8173 132.774 24.8058 134.224 25.0167C135.673 25.2276 136.967 24.5811 137.114 23.5726Z" fill="#FF6584"/>
<path d="M129.614 17.8491C129.621 16.9233 129.105 16.1689 128.461 16.164C127.817 16.1591 127.289 16.9057 127.282 17.8315C127.275 18.7573 127.792 19.5118 128.436 19.5166C129.08 19.5215 129.607 18.7749 129.614 17.8491Z" fill="#E6E6E6"/>
<path d="M127.071 7.188C127.078 6.2622 126.562 5.50774 125.917 5.50287C125.273 5.498 124.746 6.24457 124.739 7.17037C124.732 8.09617 125.248 8.85063 125.892 8.8555C126.536 8.86037 127.064 8.1138 127.071 7.188Z" fill="#3F3D56"/>
<path d="M146.849 25.9497C146.856 25.0239 146.339 24.2695 145.695 24.2646C145.051 24.2597 144.523 25.0063 144.516 25.9321C144.509 26.8579 145.026 27.6123 145.67 27.6172C146.314 27.6221 146.842 26.8755 146.849 25.9497Z" fill="#E6E6E6"/>
<path d="M138.508 30.1138C138.515 29.188 137.999 28.4335 137.355 28.4287C136.711 28.4238 136.183 29.1704 136.176 30.0962C136.169 31.022 136.685 31.7764 137.329 31.7813C137.973 31.7861 138.501 31.0396 138.508 30.1138Z" fill="#FF6584"/>
<path d="M150.119 37.8101C150.126 36.8843 149.609 36.1298 148.965 36.1249C148.321 36.1201 147.793 36.8666 147.786 37.7924C147.779 38.7182 148.296 39.4727 148.94 39.4776C149.584 39.4824 150.112 38.7359 150.119 37.8101Z" fill="#3F3D56"/>
<path d="M189.963 47.6562C190.121 47.5435 190.02 47.1325 189.739 46.7382C189.457 46.344 189.1 46.1158 188.943 46.2285C188.785 46.3412 188.886 46.7522 189.167 47.1465C189.449 47.5408 189.806 47.769 189.963 47.6562Z" fill="#3F3D56"/>
<path d="M188.91 46.251C189.068 46.1382 188.967 45.7272 188.685 45.333C188.404 44.9387 188.047 44.7105 187.89 44.8232C187.732 44.936 187.833 45.347 188.114 45.7412C188.396 46.1355 188.753 46.3637 188.91 46.251Z" fill="#3F3D56"/>
</g>
<defs>
<clipPath id="clip0_336_5455">
<rect width="297.19" height="174.734" fill="white"/>
</clipPath>
</defs>
</svg>
