<svg width="40" height="40" viewBox="0 0 40 40" fill="none" xmlns="http://www.w3.org/2000/svg">
<rect width="40" height="40" rx="20" fill="#273E56"/>
<path d="M28.1562 19.443L14.4062 12.568C14.2985 12.5141 14.1774 12.4925 14.0577 12.5058C13.9379 12.5191 13.8245 12.5667 13.7312 12.643C13.6421 12.7176 13.5756 12.8157 13.5392 12.9261C13.5027 13.0365 13.4978 13.1549 13.525 13.268L15.1812 19.3742H22.25V20.6242H15.1812L13.5 26.7117C13.4745 26.8061 13.4715 26.9052 13.4913 27.001C13.5111 27.0967 13.553 27.1865 13.6138 27.2631C13.6746 27.3397 13.7525 27.401 13.8413 27.442C13.9301 27.483 14.0273 27.5026 14.125 27.4992C14.2228 27.4986 14.3192 27.4751 14.4062 27.4305L28.1562 20.5555C28.2586 20.503 28.3445 20.4233 28.4045 20.3252C28.4645 20.227 28.4963 20.1142 28.4963 19.9992C28.4963 19.8842 28.4645 19.7714 28.4045 19.6732C28.3445 19.5751 28.2586 19.4954 28.1562 19.443Z" fill="white"/>
</svg>
