<svg width="30" height="30" viewBox="0 0 30 30" fill="none" xmlns="http://www.w3.org/2000/svg">
<path fill-rule="evenodd" clip-rule="evenodd" d="M10.625 15C13.0418 15 15 13.0418 15 10.625C15 8.20812 13.0418 6.25 10.625 6.25C8.2081 6.25 6.24999 8.20812 6.24999 10.625C6.24999 13.0418 8.2081 15 10.625 15ZM13.75 10.625C13.75 12.3519 12.3518 13.75 10.625 13.75C8.8981 13.75 7.49998 12.3519 7.49998 10.625C7.49998 8.89811 8.8981 7.5 10.625 7.5C12.3518 7.5 13.75 8.89811 13.75 10.625ZM2.5 23.7499V20.2499C2.5 17.59 7.9131 16.25 10.625 16.25C12.4287 16.25 15.4281 16.8431 17.2343 18.0231C18.5218 17.675 19.9337 17.5 20.9374 17.5C22.0987 17.5 23.6568 17.7337 24.9437 18.2062C25.5849 18.4425 26.1993 18.7525 26.6637 19.1537C27.1318 19.5581 27.4999 20.1049 27.4999 20.7912V23.7499H2.5ZM3.75 20.2499C3.75 20.0518 3.84124 19.7806 4.22874 19.4281C4.62437 19.0681 5.23311 18.7193 6.00374 18.4156C7.54811 17.8062 9.4231 17.5 10.625 17.5C11.8268 17.5 13.7025 17.8062 15.2456 18.4156C16.0168 18.7193 16.6256 19.0681 17.0206 19.4281C17.4087 19.7806 17.4999 20.0518 17.4999 20.2499V22.4999H3.75V20.2499ZM18.3456 19.0437C19.2912 18.8481 20.2393 18.75 20.9374 18.75C21.9668 18.75 23.3768 18.9625 24.5124 19.3799C25.0805 19.5887 25.5399 19.8349 25.8468 20.0999C26.1499 20.3618 26.2499 20.5918 26.2499 20.7918V22.4999H18.7499V20.2499C18.7499 19.8124 18.6031 19.4093 18.3456 19.0437ZM24.3749 12.8125C24.3749 14.7118 22.8368 16.25 20.9374 16.25C20.486 16.25 20.039 16.1612 19.6219 15.9885C19.2048 15.8157 18.8258 15.5625 18.5066 15.2433C18.1874 14.9241 17.9342 14.5451 17.7614 14.128C17.5887 13.7109 17.4999 13.2639 17.4999 12.8125C17.4999 10.9131 19.0381 9.37499 20.9374 9.37499C22.8368 9.37499 24.3749 10.9131 24.3749 12.8125ZM20.9374 15C22.1462 15 23.1249 14.0212 23.1249 12.8125C23.1249 11.6037 22.1462 10.625 20.9374 10.625C20.6501 10.6248 20.3656 10.6813 20.1001 10.7912C19.8346 10.901 19.5934 11.0622 19.3903 11.2653C19.1871 11.4685 19.026 11.7097 18.9161 11.9752C18.8062 12.2406 18.7498 12.5252 18.7499 12.8125C18.7499 14.0212 19.7287 15 20.9374 15Z" fill="#273E56"/>
<circle cx="10.7142" cy="10.714" r="3.26086" fill="#273E56"/>
<ellipse cx="20.9626" cy="13.0431" rx="2.32918" ry="2.79502" fill="#273E56"/>
<rect x="3.72668" y="18.6328" width="20.4968" height="4.65837" fill="#273E56"/>
<rect x="5.59009" y="17.7012" width="10.2484" height="1.86335" fill="#273E56"/>
<rect x="8.38501" y="16.7695" width="4.65837" height="0.931673" fill="#273E56"/>
<rect x="24.2235" y="19.5645" width="2.79502" height="3.72669" fill="#273E56"/>
<rect x="24.2235" y="18.6328" width="0.931673" height="0.931673" fill="#273E56"/>
</svg>
