<svg width="31" height="30" viewBox="0 0 31 30" fill="none" xmlns="http://www.w3.org/2000/svg">
<path d="M18.5 23H18H4.25H3.75V22.5V20.25C3.75 19.8676 3.93779 19.4717 4.39224 19.0583L18.5 23ZM18.5 23V22.5M18.5 23V22.5M18.5 22.5V20.25C18.5 19.8676 18.3122 19.4718 17.8574 19.0586M18.5 22.5L17.8574 19.0586M6.32023 17.9505C7.9243 17.3176 9.86166 17 11.125 17C12.3882 17 14.326 17.3175 15.9288 17.9504L6.32023 17.9505ZM6.32023 17.9505C5.51975 18.2661 4.84981 18.642 4.39229 19.0583L6.32023 17.9505ZM17.8574 19.0586C17.4004 18.642 16.7303 18.2661 15.9293 17.9506L17.8574 19.0586ZM24.125 12.8125C24.125 14.2974 22.9224 15.5 21.4375 15.5C19.9527 15.5 18.7502 14.2975 18.75 12.8128C18.75 12.8127 18.75 12.8126 18.75 12.8125H19.25H24.125ZM24.125 12.8125C24.125 11.3277 22.9225 10.1252 21.4378 10.125L24.125 12.8125ZM27.5 20.7912V23.25H3.5V20.25C3.5 19.7716 3.73938 19.3136 4.22444 18.8728C4.71258 18.4292 5.41294 18.0395 6.22901 17.7176C7.86164 17.0736 9.83055 16.75 11.125 16.75C11.9801 16.75 13.1404 16.8917 14.3092 17.1796C15.4812 17.4682 16.6229 17.8943 17.4609 18.4417L17.6485 18.5643L17.8649 18.5058C19.1122 18.1685 20.4802 18 21.4375 18C22.5458 18 24.0446 18.2253 25.2709 18.6754C25.883 18.9009 26.4357 19.1854 26.8368 19.5321L26.8369 19.5321C27.2399 19.8802 27.5 20.3006 27.5 20.7912ZM18.7443 18.5541L17.998 18.7085L18.4368 19.3317C18.6447 19.6268 18.75 19.9312 18.75 20.25V22.5V23H19.25H26.75H27.25V22.5V20.7919C27.25 20.399 27.0448 20.0422 26.6737 19.7216L26.6737 19.7216C26.3038 19.4021 25.7829 19.1304 25.185 18.9107C23.9887 18.4709 22.5197 18.25 21.4375 18.25C20.7 18.25 19.7176 18.3528 18.7443 18.5541ZM21.4375 15.75H21.4374C21.0516 15.7501 20.6696 15.6741 20.3132 15.5265C19.9568 15.379 19.633 15.1626 19.3602 14.8898C19.0874 14.617 18.871 14.2932 18.7235 13.9368C18.5759 13.5804 18.4999 13.1984 18.5 12.8126V12.8125C18.5 11.1893 19.8143 9.875 21.4375 9.875C23.0607 9.875 24.375 11.1893 24.375 12.8125C24.375 14.4357 23.0607 15.75 21.4375 15.75ZM15 10.625C15 12.7657 13.2657 14.5 11.125 14.5C8.98427 14.5 7.25 12.7657 7.25 10.625C7.25 8.48427 8.98427 6.75 11.125 6.75C13.2657 6.75 15 8.48427 15 10.625ZM11.125 14.25C13.128 14.25 14.75 12.628 14.75 10.625C14.75 8.62198 13.128 7 11.125 7C9.12198 7 7.5 8.62198 7.5 10.625C7.5 12.628 9.12198 14.25 11.125 14.25Z" fill="#777A86" stroke="#777A86"/>
</svg>
