<svg width="46" height="46" viewBox="0 0 46 46" fill="none" xmlns="http://www.w3.org/2000/svg">
<path d="M42.069 22.722C42.069 22.8907 42.0672 23.0584 42.062 23.2253C41.9358 28.116 39.9726 32.695 36.5003 36.1664C32.91 39.7576 28.1348 41.7352 23.056 41.7352C17.9771 41.7352 13.2019 39.7576 9.61161 36.1664C6.13945 32.6951 4.17611 28.1159 4.05007 23.2253C4.04465 23.0584 4.04297 22.8907 4.04297 22.722C4.04297 17.6432 6.02043 12.8689 9.61161 9.27772C13.202 5.68653 17.9772 3.70898 23.056 3.70898C28.1348 3.70898 32.91 5.68653 36.5003 9.27772C40.0915 12.8689 42.069 17.6432 42.069 22.722Z" fill="#7ED8F3"/>
<path d="M36.5003 9.27772C32.91 5.68653 28.1348 3.70898 23.056 3.70898C17.9771 3.70898 13.2019 5.68653 9.61161 9.27772C6.02052 12.8689 4.04297 17.6432 4.04297 22.722C4.04297 22.8907 4.04474 23.0584 4.05007 23.2253C4.17611 28.116 6.13945 32.695 9.61161 36.1664C13.2019 39.7576 17.9771 41.7352 23.056 41.7352C28.1348 41.7352 32.91 39.7576 36.5003 36.1664C39.9726 32.6952 41.9358 28.116 42.062 23.2253C42.0674 23.0584 42.069 22.8907 42.069 22.722C42.069 17.6432 40.0915 12.8689 36.5003 9.27772ZM23.056 40.8476C14.6593 40.8476 7.57824 35.1084 5.5287 27.3465C5.13825 25.8703 4.93056 24.3197 4.93056 22.722C4.93056 12.7278 13.0618 4.59657 23.056 4.59657C33.0503 4.59657 41.1814 12.7278 41.1814 22.722C41.1814 24.3197 40.9737 25.8704 40.5832 27.3465C38.5338 35.1084 31.4526 40.8476 23.056 40.8476Z" fill="#7ED8F3"/>
<path d="M17.2468 15.958C15.6855 15.958 14.4154 17.229 14.4154 18.7903C14.4154 20.3516 15.6856 21.6217 17.2468 21.6217C18.808 21.6217 20.0782 20.3515 20.0782 18.7903C20.0782 17.2291 18.8081 15.958 17.2468 15.958ZM19.0192 18.6291C17.947 18.6291 19.3714 19.4948 19.3714 18.4235C19.3714 17.3513 15.8427 20.8799 16.9149 20.8799C17.9871 20.8799 19.1906 17.7181 19.1906 18.7903C19.1906 19.8616 20.0914 18.6291 19.0192 18.6291Z" fill="#273E56"/>
<path d="M28.8653 15.958C27.304 15.958 26.0339 17.229 26.0339 18.7903C26.0339 20.3516 27.3042 21.6217 28.8653 21.6217C30.4265 21.6217 31.6966 20.3515 31.6966 18.7903C31.6968 17.229 30.4265 15.958 28.8653 15.958ZM30.6592 18.4746C29.588 18.4746 31.0395 19.4948 31.0395 18.4235C31.0395 17.3513 26.2836 19.3446 27.3548 19.3446C28.427 19.3446 30.809 17.7181 30.809 18.7903C30.8092 19.8616 31.7315 18.4746 30.6592 18.4746Z" fill="#273E56"/>
<path d="M23.0561 34.142C19.4389 34.142 16.0859 32.4498 14.3057 29.7258L15.0487 29.2402C16.6667 31.7163 19.735 33.2544 23.0561 33.2544C26.3771 33.2544 29.4452 31.7163 31.0634 29.2402L31.8064 29.7258C30.0262 32.4498 26.6733 34.142 23.0561 34.142Z" fill="#273E56"/>
</svg>
