<svg width="121" height="131" viewBox="0 0 121 131" fill="none" xmlns="http://www.w3.org/2000/svg">
<path d="M52.2659 41.7176C52.1754 40.8154 51.8809 39.9454 51.4046 39.1731C50.9283 38.4008 50.2825 37.7463 49.5159 37.2588C48.7494 36.7713 47.8819 36.4635 46.9788 36.3586C46.0758 36.2537 45.1606 36.3544 44.3022 36.6532L44.7381 36.6976C42.7833 37.0875 41.0461 38.1943 39.8696 39.7993C39.2949 40.6016 38.8999 41.5178 38.7113 42.4857C38.5228 43.4536 38.5451 44.4506 38.7767 45.4092C39.2707 47.3129 40.729 48.9645 42.5956 49.5981C43.6335 49.9505 44.7477 49.9935 45.8436 50.0307C46.5549 50.0548 47.2793 50.0764 47.9651 49.8863C48.8473 49.6138 49.6227 49.0747 50.1843 48.3435C50.7406 47.615 51.1831 46.8069 51.497 45.9464C52.0286 44.6006 52.4103 43.1568 52.2659 41.7176Z" fill="#2F2E41"/>
<path d="M67.7643 129.425C66.2145 123.612 69.6561 117.947 73.6776 114.024C75.8208 111.934 78.2077 110.117 80.5352 108.24C82.7686 106.459 84.8955 104.548 86.9049 102.519C90.7852 98.5584 94.1699 94.032 96.4114 88.944C98.5429 84.1056 99.5504 78.835 99.0514 73.5557C98.578 68.5488 96.7785 63.6236 93.4681 59.7821C93.0556 59.3035 92.6216 58.8446 92.1663 58.4057C91.9221 58.1692 91.5479 58.5416 91.7925 58.7785C95.4892 62.3581 97.6408 67.2092 98.3689 72.2561C99.1199 77.4607 98.3461 82.7666 96.3946 87.6325C94.3157 92.816 91.0099 97.4414 87.1762 101.478C85.2455 103.497 83.1916 105.396 81.0263 107.164C78.7139 109.064 76.3111 110.858 74.1092 112.889C70.051 116.63 66.4036 121.777 66.9046 127.57C66.963 128.244 67.0801 128.912 67.2546 129.565C67.2751 129.631 67.3202 129.685 67.3804 129.718C67.4406 129.751 67.5112 129.759 67.5773 129.741C67.6434 129.723 67.6998 129.68 67.7347 129.621C67.7696 129.562 67.7802 129.492 67.7643 129.425Z" fill="#F0F0F0"/>
<path d="M83.9939 96.3333C81.5517 92.1577 79.6839 87.6735 78.4408 83.0012C77.1939 78.3301 76.5702 73.5154 76.5859 68.6816C76.6036 63.848 77.1921 58.8934 78.6946 54.284C80.1207 49.9094 82.6757 45.7375 86.7321 43.3502C88.8008 42.1401 91.1624 41.5181 93.5606 41.5519C96.0935 41.5758 98.5914 42.2407 100.874 43.3173C103.109 44.3717 105.153 45.7927 107.041 47.3768C108.841 48.8845 110.521 50.5296 112.065 52.2972C115.125 55.8063 117.625 59.8694 119.021 64.3245C120.476 68.9674 120.731 74.0459 119.381 78.7449C118.084 83.2583 115.242 87.1052 111.754 90.1953C107.984 93.5348 103.518 95.9616 99.0146 98.1642C97.8875 98.7155 96.7543 99.2543 95.6211 99.7929C95.3141 99.9388 95.582 100.393 95.8879 100.248C100.636 97.9912 105.432 95.7145 109.665 92.5635C113.399 89.7831 116.729 86.2929 118.709 82.0415C120.804 77.5456 121.233 72.4336 120.365 67.5829C119.516 62.8422 117.388 58.4053 114.539 54.5411C113.124 52.6293 111.551 50.8389 109.836 49.1883C108.078 47.4562 106.157 45.8952 104.101 44.5266C99.8867 41.7794 94.6163 40.1204 89.6217 41.5355C85.1815 42.7935 81.7641 46.3415 79.7306 50.3625C78.5925 52.613 77.8254 55.0334 77.2797 57.4894C76.7473 59.9097 76.3893 62.3649 76.2084 64.8361C75.4827 74.6974 77.4208 84.5723 81.8208 93.4331C82.3568 94.5076 82.929 95.563 83.5375 96.5993C83.5741 96.6572 83.6318 96.6985 83.6984 96.7147C83.765 96.731 83.8354 96.7207 83.8946 96.6862C83.9538 96.6517 83.9972 96.5956 84.0158 96.5298C84.0343 96.4639 84.0265 96.3935 83.9939 96.3333Z" fill="#F0F0F0"/>
<path d="M80.646 91.2376C78.2038 87.062 76.336 82.5778 75.0929 77.9055C73.846 73.2344 73.2223 68.4197 73.238 63.5859C73.2557 58.7523 73.8442 53.7977 75.3467 49.1883C76.7728 44.8137 79.3278 40.6418 83.3842 38.2545C85.4529 37.0443 87.8145 36.4224 90.2127 36.4562C92.7456 36.4801 95.2435 37.145 97.5258 38.2216C99.7609 39.276 101.805 40.697 103.693 42.2811C105.493 43.7888 107.173 45.4339 108.717 47.2015C111.777 50.7106 114.277 54.7737 115.673 59.2288C117.128 63.8717 117.384 68.9502 116.033 73.6492C114.736 78.1626 111.894 82.0095 108.406 85.0996C104.636 88.4391 100.17 90.8659 95.6667 93.0685C94.5396 93.6198 93.4064 94.1586 92.2732 94.6972C91.9662 94.8431 92.2341 95.2977 92.54 95.1524C97.2884 92.8955 102.084 90.6188 106.317 87.4678C110.052 84.6874 113.381 81.1972 115.361 76.9458C117.456 72.4499 117.885 67.3379 117.017 62.4872C116.168 57.7465 114.04 53.3096 111.192 49.4453C109.776 47.5336 108.203 45.7432 106.489 44.0926C104.73 42.3605 102.809 40.7995 100.753 39.4309C96.5388 36.6837 91.2684 35.0247 86.2738 36.4398C81.8336 37.6978 78.4162 41.2458 76.3827 45.2668C75.2446 47.5173 74.4775 49.9377 73.9318 52.3937C73.3994 54.814 73.0414 57.2692 72.8605 59.7404C72.1348 69.6017 74.0728 79.4766 78.4729 88.3374C79.0089 89.4119 79.5811 90.4673 80.1896 91.5036C80.2262 91.5615 80.2839 91.6028 80.3505 91.619C80.4171 91.6353 80.4875 91.625 80.5467 91.5905C80.6059 91.556 80.6493 91.4999 80.6679 91.4341C80.6864 91.3682 80.6786 91.2977 80.646 91.2376Z" fill="#F0F0F0"/>
<path d="M32.5254 81.3576C32.339 81.0954 32.2124 80.7955 32.1547 80.4793C32.097 80.163 32.1096 79.8379 32.1915 79.527C32.2734 79.2161 32.4227 78.9268 32.6288 78.6797C32.8349 78.4325 33.0929 78.2334 33.3845 78.0964L39.4944 59.0176L43.7497 61.222L36.4058 79.2827C36.6041 79.7865 36.6101 80.3454 36.4229 80.8534C36.2356 81.3614 35.868 81.7832 35.3897 82.039C34.9114 82.2948 34.3556 82.3667 33.8277 82.2411C33.2998 82.1155 32.8364 81.8011 32.5254 81.3576Z" fill="#FFB6B6"/>
<path d="M37.5171 61.6571C37.4586 61.528 37.4288 61.3878 37.4296 61.2461C37.4304 61.1044 37.4618 60.9646 37.5218 60.8361L39.6145 56.3491C39.821 55.6541 40.2953 55.0691 40.9336 54.7223C41.5718 54.3756 42.3219 54.2953 43.0194 54.4992C43.7169 54.7031 44.3049 55.1745 44.6544 55.81C45.004 56.4455 45.0867 57.1933 44.8843 57.8895L44.1848 62.8049C44.1648 62.9452 44.1148 63.0795 44.0381 63.1987C43.9613 63.318 43.8597 63.4194 43.7402 63.4959C43.6207 63.5725 43.486 63.6224 43.3453 63.6424C43.2047 63.6624 43.0613 63.6519 42.9251 63.6116L38.1375 62.197C38.0012 62.1568 37.8752 62.0878 37.7682 61.9946C37.6611 61.9014 37.5755 61.7863 37.5171 61.6571Z" fill="#DA9E96"/>
<path d="M55.1685 62.4141C53.7143 66.2113 54.0859 70.1941 55.8768 74.3213H43.1904C43.7003 71.3848 43.4935 68.6558 41.6046 66.4139L55.1685 62.4141Z" fill="#FFB6B6"/>
<path d="M40.3209 55.4349L44.0754 52.7117L50.2193 51.0098L55.3391 52.0309L55.6401 54.8524C56.0062 58.2843 55.8472 61.7518 55.1685 65.1361L41.8568 68.1997L40.4915 65.8169C40.4915 65.8169 37.4196 62.7534 39.8089 59.3494L40.3209 55.4349Z" fill="#DA9E96"/>
<path d="M72.9311 36.3883C73.0149 36.6987 73.0294 37.0237 72.9737 37.3403C72.9179 37.6569 72.7932 37.9575 72.6084 38.2209C72.4235 38.4842 72.183 38.704 71.9038 38.8646C71.6246 39.0253 71.3134 39.1229 70.9923 39.1507L58.6327 54.9368L55.4069 51.3987L68.5702 36.9939C68.5593 36.4528 68.7477 35.9265 69.0998 35.5146C69.452 35.1028 69.9434 34.8341 70.4809 34.7594C71.0184 34.6848 71.5648 34.8093 72.0164 35.1095C72.4679 35.4098 72.7934 35.8647 72.9311 36.3883Z" fill="#FFB6B6"/>
<path d="M61.4041 53.1443C61.4141 53.2857 61.3935 53.4275 61.3435 53.5601C61.2935 53.6928 61.2154 53.8131 61.1146 53.9129L57.5927 57.3989C57.1576 57.9796 56.5094 58.3646 55.7901 58.4694C55.0709 58.5742 54.3393 58.3904 53.7558 57.9581C53.1723 57.5258 52.7844 56.8804 52.6773 56.1634C52.5702 55.4464 52.7526 54.7163 53.1844 54.1332L55.5482 49.7639C55.6156 49.6392 55.7092 49.5304 55.8226 49.4451C55.9361 49.3597 56.0666 49.2998 56.2053 49.2692C56.344 49.2387 56.4878 49.2384 56.6266 49.2682C56.7655 49.2981 56.8963 49.3575 57.0101 49.4423L61.0098 52.4235C61.1237 52.5083 61.2178 52.6166 61.2859 52.741C61.3539 52.8654 61.3943 53.003 61.4041 53.1443Z" fill="#DA9E96"/>
<path d="M40.3375 125.97H42.2815L43.2064 118.492H40.3372L40.3375 125.97Z" fill="#FFB6B6"/>
<path d="M39.6791 125.013L42.7523 124.83V126.143L45.674 128.156C45.8183 128.255 45.927 128.398 45.9842 128.563C46.0414 128.728 46.0441 128.908 45.9919 129.075C45.9397 129.242 45.8354 129.388 45.6941 129.491C45.5529 129.595 45.3821 129.651 45.2067 129.651H41.548L40.9173 128.352L40.6711 129.651H39.2916L39.6791 125.013Z" fill="#2F2E41"/>
<path d="M54.081 125.97H56.0251L56.9499 118.492H54.0807L54.081 125.97Z" fill="#FFB6B6"/>
<path d="M53.4227 125.013L56.4958 124.83V126.143L59.4176 128.156C59.5619 128.255 59.6706 128.398 59.7278 128.563C59.7849 128.728 59.7877 128.908 59.7355 129.075C59.6833 129.242 59.5789 129.388 59.4376 129.491C59.2964 129.595 59.1256 129.651 58.9502 129.651H55.2915L54.6609 128.352L54.4146 129.651H53.0352L53.4227 125.013Z" fill="#2F2E41"/>
<path d="M59.2457 84.0717V87.8848L58.8722 92.5432C58.8722 92.5432 58.7541 96.6111 58.6114 99.8197C58.5251 101.77 58.4282 103.403 58.3436 103.614C58.2396 103.872 58.2643 104.576 58.3242 105.316C58.3947 106.172 58.511 107.075 58.5304 107.377C58.5674 107.941 58.2678 110.365 58.2678 110.365C58.2678 110.365 57.933 116.441 57.4467 116.926C56.9604 117.411 57.4467 118.79 57.4467 118.79C55.1667 120.467 52.2876 118.418 52.2876 118.418C52.9237 117.408 51.914 110.511 51.914 110.511C51.914 110.511 51.766 108.156 51.4665 107.523C51.167 106.891 51.0912 102.939 51.0912 102.939V97.0855C51.0912 97.0855 50.3053 95.8871 50.1944 95.3283C50.0834 94.7695 50.1944 92.7944 50.1944 92.7944L49.3732 90.0356L48.8112 92.197C48.8112 92.197 47.3558 98.2365 47.0932 98.9815C46.8307 99.7266 47.2413 100.473 47.2413 100.473C47.2413 100.473 47.6166 101.623 47.2413 102.15C47.0081 102.48 46.8296 102.845 46.7127 103.232C46.7127 103.232 46.5206 105.432 46.1841 106.219C45.8475 107.007 45.5498 107.977 45.5498 107.977C45.5498 107.977 45.629 109.463 45.2925 109.799C44.9559 110.134 44.845 111.813 44.845 111.813C44.845 111.813 44.9189 113.712 44.4696 114.383C44.0203 115.055 44.0203 118.857 44.0203 118.857C43.2411 119.356 42.3431 119.639 41.4181 119.678C40.4932 119.718 39.5743 119.511 38.7555 119.08C38.7555 119.08 39.1995 118.666 38.863 116.733C38.5265 114.8 39.1044 109.537 39.1044 109.537C39.1044 109.537 39.0304 108.202 39.4039 107.604C39.7774 107.007 39.2153 105.852 39.3651 105.33C39.5149 104.808 39.9642 101.974 39.9642 101.974C39.9642 101.974 39.7774 95.0032 39.7774 94.6307C39.7332 93.9676 39.5533 93.3206 39.2488 92.7294C38.9123 92.1337 39.2488 87.8093 39.2488 87.8093C39.2488 87.8093 40.0417 85.5741 39.7774 85.0891C39.5131 84.6042 39.9536 83.7466 39.9536 83.7466C39.9536 83.7466 39.5431 82.7398 39.9536 82.5535C40.3642 82.3672 40.44 81.6222 40.44 81.6222L40.7253 78.0059C40.7253 78.0059 40.8329 76.3647 41.1747 76.2909C41.5165 76.217 41.3667 75.5845 41.7033 75.1364C41.8673 74.8335 41.9804 74.5058 42.0381 74.1664C42.0856 73.9591 42.1297 73.7429 42.1667 73.5356C42.2724 72.9733 42.3376 72.4883 42.3376 72.4883C44.5437 74.3158 56.1428 73.0348 56.1552 73.0348C56.8917 73.1947 57.7674 75.7444 58.3999 77.9672C58.9623 79.9535 59.2469 82.0078 59.2457 84.0717Z" fill="#C7D3C9"/>
<path d="M50.8088 46.2129C51.6543 43.4393 50.085 40.5073 47.3038 39.6641C44.5226 38.8209 41.5826 40.3859 40.7372 43.1595C39.8917 45.9332 41.4609 48.8652 44.2421 49.7083C47.0233 50.5515 49.9633 48.9865 50.8088 46.2129Z" fill="#FFB6B6"/>
<path d="M39.8238 45.5996L41.8619 45.1766L42.2371 42.4793L42.9408 44.9527L43.9149 44.7506L44.1339 43.1771L44.5443 44.62L51.7826 43.118C51.6335 42.4036 51.3448 41.7254 50.933 41.1223C50.5211 40.5192 49.9942 40.0029 49.3823 39.6028C48.7703 39.2028 48.0854 38.9269 47.3665 38.7908C46.6477 38.6547 45.909 38.6612 45.1926 38.8099L44.1436 39.0276C42.6969 39.3278 41.429 40.1888 40.6189 41.4213C39.8087 42.6538 39.5227 44.1568 39.8238 45.5996Z" fill="#2F2E41"/>
<path d="M60.6745 6.13114L60.6611 6.15677C58.003 4.93549 54.9757 4.78077 52.2063 5.72465C49.4369 6.66853 47.1377 8.63867 45.7851 11.2269C44.4325 13.8152 44.13 16.8231 44.9405 19.6277C45.7509 22.4322 47.6121 24.8184 50.1384 26.2918L50.125 26.3174L70.3664 36.8382L80.9159 16.6519C81.6104 15.3263 82.036 13.8772 82.1685 12.3875C82.301 10.8977 82.1378 9.39653 81.6883 7.96972C81.2387 6.5429 80.5116 5.21844 79.5484 4.07204C78.5853 2.92565 77.405 1.9798 76.0751 1.28856C74.7452 0.597329 73.2917 0.174264 71.7978 0.0435525C70.3039 -0.0871587 68.7987 0.0770468 67.3685 0.526783C65.9382 0.976519 64.6108 1.70297 63.4622 2.6646C62.3136 3.62623 61.3664 4.80419 60.6745 6.13114Z" fill="#EC7E41"/>
<path d="M78.7083 121.966L78.705 121.972C78.0331 121.664 77.268 121.625 76.568 121.863C75.868 122.102 75.2869 122.6 74.945 123.254C74.6031 123.908 74.5267 124.668 74.7316 125.377C74.9364 126.086 75.4068 126.689 76.0454 127.061L76.042 127.068L81.158 129.727L83.8243 124.625C83.9999 124.29 84.1075 123.924 84.141 123.547C84.1745 123.171 84.1333 122.791 84.0197 122.43C83.9061 122.07 83.7223 121.735 83.4789 121.445C83.2354 121.155 82.9371 120.916 82.601 120.742C82.2648 120.567 81.8974 120.46 81.5198 120.427C81.1422 120.394 80.7617 120.436 80.4002 120.549C80.0387 120.663 79.7032 120.847 79.4129 121.09C79.1226 121.333 78.8832 121.63 78.7083 121.966Z" fill="#FF6584"/>
<path d="M10.8421 57.2735V57.3024C7.91894 57.4446 5.16264 58.7028 3.14423 60.8163C1.12582 62.9298 -1.35896e-06 65.7366 0 68.6553C1.35896e-06 71.5739 1.12583 74.3808 3.14424 76.4942C5.16265 78.6077 7.91895 79.8659 10.8421 80.0081V80.037L33.6677 80.037L33.6677 57.2735C33.6691 55.7779 33.375 54.2967 32.8021 52.9146C32.2292 51.5324 31.3888 50.2764 30.3288 49.2184C29.2689 48.1603 28.0103 47.321 26.6249 46.7483C25.2395 46.1756 23.7546 45.8809 22.2549 45.8809C20.7552 45.8809 19.2703 46.1756 17.8849 46.7483C16.4995 47.321 15.2409 48.1603 14.181 49.2184C13.121 50.2764 12.2806 51.5324 11.7077 52.9146C11.1348 54.2967 10.8407 55.778 10.8421 57.2735Z" fill="#EC7E41"/>
<path d="M117.218 130.008H3.16512C3.10948 130.008 3.05612 129.986 3.01677 129.947C2.97743 129.908 2.95532 129.855 2.95532 129.799C2.95532 129.744 2.97743 129.69 3.01677 129.651C3.05612 129.612 3.10948 129.59 3.16512 129.59H117.218C117.274 129.59 117.327 129.612 117.366 129.651C117.406 129.69 117.428 129.744 117.428 129.799C117.428 129.855 117.406 129.908 117.366 129.947C117.327 129.986 117.274 130.008 117.218 130.008Z" fill="#CACACA"/>
<path d="M99.0591 78.7783C101.391 78.7638 103.645 77.9432 105.437 76.4564C107.262 74.926 108.463 72.7831 108.814 70.4312C109.02 69.1016 108.954 67.744 108.619 66.4407C108.598 66.3755 108.553 66.3207 108.493 66.288C108.433 66.2553 108.362 66.2472 108.296 66.2653C108.23 66.2835 108.174 66.3266 108.139 66.3854C108.104 66.4443 108.093 66.5144 108.109 66.5809C108.674 68.7938 108.419 71.1357 107.391 73.1762C106.602 74.7019 105.407 75.982 103.938 76.877C102.468 77.7719 100.781 78.2472 99.0591 78.2511C98.9906 78.2535 98.9257 78.2823 98.8781 78.3315C98.8305 78.3807 98.8038 78.4464 98.8038 78.5147C98.8038 78.5831 98.8305 78.6488 98.8781 78.698C98.9257 78.7471 98.9906 78.776 99.0591 78.7783Z" fill="#F0F0F0"/>
<path d="M58.2427 10.3088C56.7388 8.88496 54.364 8.88869 52.6271 9.87985C50.6779 10.9921 49.7942 13.2905 49.8389 15.4486C49.8892 17.8774 51.0799 20.0766 52.6175 21.898C54.2562 23.7906 56.1631 25.4344 58.278 26.7776C60.3871 28.1474 62.6691 29.232 65.0644 30.0028C65.3592 30.0976 65.6555 30.1875 65.9534 30.2723C66.0201 30.2882 66.0904 30.2776 66.1494 30.2428C66.2084 30.208 66.2516 30.1518 66.2698 30.0858C66.288 30.0199 66.2799 29.9495 66.2471 29.8895C66.2143 29.8295 66.1594 29.7845 66.0939 29.764C61.4941 28.4532 57.3121 25.9787 53.954 22.5807C52.3553 20.9478 50.9346 18.9853 50.4977 16.7011C50.1118 14.6839 50.5383 12.3418 52.106 10.9049C53.63 9.50811 56.2973 9.19362 57.8689 10.6815C58.1156 10.9151 58.4901 10.5429 58.2427 10.3088Z" fill="white"/>
<path d="M10.4513 62.82C8.41973 62.568 6.51185 63.993 5.7206 65.7929C4.83328 67.8114 5.43152 70.138 6.7186 71.8439C8.13609 73.7226 10.2832 74.8178 12.5275 75.3991C14.9367 76.0232 17.4942 76.1916 19.9741 76.0764C22.9058 75.9409 25.7989 75.3544 28.5509 74.3377C28.867 74.2206 28.7303 73.7109 28.4104 73.8294C23.8291 75.5258 18.729 76.061 13.9114 75.1653C11.758 74.765 9.5648 74.0013 7.96007 72.4561C6.50604 71.0561 5.4774 68.9357 5.91499 66.8881C6.34982 64.8535 8.28958 63.0791 10.4513 63.3471C10.788 63.3889 10.785 62.8614 10.4513 62.82Z" fill="white"/>
<path d="M44.2496 36.9969C44.741 35.0381 43.7893 32.937 42.3157 31.5522C40.8421 30.1674 38.9192 29.3715 37.016 28.6824C35.4983 28.1329 33.7206 27.6549 32.3469 28.5013C31.2432 29.1814 30.7644 30.5024 30.1334 31.633C28.931 33.7874 26.9911 35.4382 24.6685 36.2834C22.346 37.1286 19.7959 37.1118 17.4847 36.236C18.2994 38.5944 21.1053 39.748 23.6014 39.5878C26.0975 39.4276 28.4029 38.2813 30.7281 37.362C33.0533 36.4427 35.6398 35.7325 38.0296 36.4687C39.0382 36.7794 39.9556 37.3339 40.9543 37.6752C41.953 38.0164 43.1217 38.1181 44.0117 37.5519" fill="#2F2E41"/>
<path d="M79.2099 108.743L77.5084 105.756C77.4718 105.698 77.4141 105.657 77.3475 105.64C77.2808 105.624 77.2105 105.634 77.1513 105.669C77.0921 105.703 77.0486 105.759 77.0301 105.825C77.0116 105.891 77.0194 105.962 77.052 106.022L78.7535 109.009C78.7901 109.066 78.8478 109.108 78.9144 109.124C78.981 109.14 79.0514 109.13 79.1106 109.095C79.1698 109.061 79.2132 109.005 79.2318 108.939C79.2503 108.873 79.2424 108.803 79.2099 108.743Z" fill="#F0F0F0"/>
</svg>
