<svg width="31" height="31" viewBox="0 0 31 31" fill="none" xmlns="http://www.w3.org/2000/svg">
<rect width="31" height="31" rx="15.5" fill="#273E56"/>
<path d="M14.7988 13.3966H16.2012V11.9942H14.7988M15.5 21.1097C12.4078 21.1097 9.89048 18.5924 9.89048 15.5002C9.89048 12.4079 12.4078 9.89066 15.5 9.89066C18.5923 9.89066 21.1095 12.4079 21.1095 15.5002C21.1095 18.5924 18.5923 21.1097 15.5 21.1097ZM15.5 8.48828C14.5792 8.48828 13.6674 8.66965 12.8167 9.02203C11.9659 9.37441 11.193 9.89091 10.5418 10.542C9.22685 11.857 8.4881 13.6405 8.4881 15.5002C8.4881 17.3599 9.22685 19.1434 10.5418 20.4584C11.193 21.1095 11.9659 21.626 12.8167 21.9783C13.6674 22.3307 14.5792 22.5121 15.5 22.5121C17.3597 22.5121 19.1432 21.7733 20.4582 20.4584C21.7732 19.1434 22.5119 17.3599 22.5119 15.5002C22.5119 14.5794 22.3305 13.6676 21.9782 12.8168C21.6258 11.9661 21.1093 11.1931 20.4582 10.542C19.8071 9.89091 19.0341 9.37441 18.1833 9.02203C17.3326 8.66965 16.4208 8.48828 15.5 8.48828ZM14.7988 19.0061H16.2012V14.799H14.7988V19.0061Z" fill="white"/>
</svg>
