<svg width="31" height="30" viewBox="0 0 31 30" fill="none" xmlns="http://www.w3.org/2000/svg">
<path d="M3.8125 26.116L3.81254 26.116V26.1094V7.5C3.81254 7.13533 3.95741 6.78559 4.21527 6.52773C4.47313 6.26987 4.82287 6.125 5.18754 6.125H25.8125C26.1772 6.125 26.5269 6.26987 26.7848 6.52773C27.0427 6.78559 27.1875 7.13533 27.1875 7.5V22.5C27.1875 22.8647 27.0427 23.2144 26.7848 23.4723C26.5269 23.7301 26.1772 23.875 25.8125 23.875H10.2383H10.142L10.0526 23.9108L9.93544 23.9576L9.86101 23.9874L9.79962 24.0389L6.07306 27.1679L6.07107 27.1695C5.82511 27.3782 5.51363 27.4938 5.19117 27.4961C4.98837 27.4917 4.78879 27.4444 4.60562 27.3572L4.60565 27.3571L4.59763 27.3534C4.36072 27.2457 4.16031 27.0713 4.02088 26.8516C3.88146 26.6318 3.80905 26.3762 3.8125 26.116ZM25.8125 23H26.3125V22.5V7.5V7H25.8125H5.18754H4.68754V7.5V26.1094V27.1836L5.50946 26.492L9.34624 23.2634C9.39101 23.2289 9.43996 23.2002 9.49192 23.1779L9.91188 23.0303L9.91331 23.0298C9.96623 23.011 10.0218 23.001 10.078 23H25.8125ZM11.3125 13.125C11.3125 13.009 11.3586 12.8977 11.4407 12.8156C11.5227 12.7336 11.634 12.6875 11.75 12.6875H19.25C19.3661 12.6875 19.4774 12.7336 19.5594 12.8156C19.6414 12.8977 19.6875 13.009 19.6875 13.125C19.6875 13.241 19.6414 13.3523 19.5594 13.4344C19.4774 13.5164 19.3661 13.5625 19.25 13.5625H11.75C11.634 13.5625 11.5227 13.5164 11.4407 13.4344C11.3586 13.3523 11.3125 13.241 11.3125 13.125ZM11.3125 16.875C11.3125 16.759 11.3586 16.6477 11.4407 16.5656C11.5227 16.4836 11.634 16.4375 11.75 16.4375H19.25C19.3661 16.4375 19.4774 16.4836 19.5594 16.5656C19.6414 16.6477 19.6875 16.759 19.6875 16.875C19.6875 16.991 19.6414 17.1023 19.5594 17.1844C19.4774 17.2664 19.3661 17.3125 19.25 17.3125H11.75C11.634 17.3125 11.5227 17.2664 11.4407 17.1844C11.3586 17.1023 11.3125 16.991 11.3125 16.875Z" fill="#777A86" stroke="#777A86"/>
</svg>
