<svg width="31" height="30" viewBox="0 0 31 30" fill="none" xmlns="http://www.w3.org/2000/svg">
<path d="M25.8127 5.625H5.18761C4.69032 5.625 4.21341 5.82254 3.86178 6.17418C3.51014 6.52581 3.3126 7.00272 3.3126 7.50001V26.1095C3.30887 26.4681 3.41004 26.82 3.60367 27.1219C3.7973 27.4238 4.07494 27.6625 4.40245 27.8087C4.72477 27.9591 5.08323 28.0147 5.43598 27.9691C5.78874 27.9234 6.12123 27.7784 6.39464 27.5509L10.1095 24.4219L25.8127 24.3751C26.31 24.3751 26.7869 24.1775 27.1385 23.8259C27.4901 23.4743 27.6877 22.9973 27.6877 22.5001V7.50001C27.6877 7.00272 27.4901 6.52581 27.1385 6.17418C26.7869 5.82254 26.31 5.625 25.8127 5.625ZM19.2502 17.8125H11.7501C11.5015 17.8125 11.263 17.7138 11.0872 17.538C10.9114 17.3621 10.8126 17.1237 10.8126 16.875C10.8126 16.6264 10.9114 16.3879 11.0872 16.2121C11.263 16.0363 11.5015 15.9375 11.7501 15.9375H19.2502C19.4988 15.9375 19.7373 16.0363 19.9131 16.2121C20.0889 16.3879 20.1877 16.6264 20.1877 16.875C20.1877 17.1237 20.0889 17.3621 19.9131 17.538C19.7373 17.7138 19.4988 17.8125 19.2502 17.8125ZM19.2502 14.0625H11.7501C11.5015 14.0625 11.263 13.9638 11.0872 13.7879C10.9114 13.6121 10.8126 13.3737 10.8126 13.125C10.8126 12.8764 10.9114 12.6379 11.0872 12.4621C11.263 12.2863 11.5015 12.1875 11.7501 12.1875H19.2502C19.4988 12.1875 19.7373 12.2863 19.9131 12.4621C20.0889 12.6379 20.1877 12.8764 20.1877 13.125C20.1877 13.3737 20.0889 13.6121 19.9131 13.7879C19.7373 13.9638 19.4988 14.0625 19.2502 14.0625Z" fill="#273E56"/>
</svg>
