<svg width="31" height="31" viewBox="0 0 31 31" fill="none" xmlns="http://www.w3.org/2000/svg">
<rect width="31" height="31" rx="15.5" fill="#273E56"/>
<rect width="18.2821" height="18.2821" transform="translate(6.35898 6.35938)" fill="#273E56"/>
<path d="M15.4924 7.88281C11.2875 7.88281 7.88248 11.2955 7.88248 15.5003C7.88248 19.7052 11.2875 23.1179 15.4924 23.1179C19.7049 23.1179 23.1175 19.7052 23.1175 15.5003C23.1175 11.2955 19.7049 7.88281 15.4924 7.88281ZM15.5 21.5944C12.1331 21.5944 9.40598 18.8673 9.40598 15.5003C9.40598 12.1334 12.1331 9.40632 15.5 9.40632C18.8669 9.40632 21.594 12.1334 21.594 15.5003C21.594 18.8673 18.8669 21.5944 15.5 21.5944Z" fill="white"/>
<path d="M15.8809 11.6914H14.7383V16.2619L18.7374 18.6614L19.3088 17.7245L15.8809 15.6906V11.6914Z" fill="white"/>
</svg>
