<svg width="45" height="46" viewBox="0 0 45 46" fill="none" xmlns="http://www.w3.org/2000/svg">
<path d="M30.7422 15.5821H27.8883L26.4872 13.4803C26.4126 13.3654 26.3103 13.2712 26.1896 13.2063C26.0689 13.1415 25.9338 13.1082 25.7969 13.1094H19.2031C19.0662 13.1082 18.9311 13.1415 18.8104 13.2063C18.6897 13.2712 18.5874 13.3654 18.5128 13.4803L17.1117 15.5821H14.2578C13.6029 15.5848 12.9755 15.8462 12.5124 16.3093C12.0493 16.7724 11.7879 17.3998 11.7852 18.0547V29.5938C11.7879 30.2487 12.0493 30.8761 12.5124 31.3392C12.9755 31.8023 13.6029 32.0637 14.2578 32.0664H30.7422C31.3971 32.0637 32.0245 31.8023 32.4876 31.3392C32.9508 30.8761 33.2121 30.2487 33.2148 29.5938V18.0547C33.2121 17.3998 32.9508 16.7724 32.4876 16.3093C32.0245 15.8462 31.3971 15.5848 30.7422 15.5821ZM25.9926 26.9048C25.5349 27.3652 24.9908 27.7305 24.3914 27.9799C23.792 28.2292 23.1492 28.3575 22.5 28.3575C21.8508 28.3575 21.208 28.2292 20.6086 27.9799C20.0092 27.7305 19.465 27.3652 19.0074 26.9048H18.9971L18.5128 26.3999L18.3686 27.2551C18.3349 27.4471 18.2351 27.6212 18.0864 27.7473C17.9377 27.8734 17.7496 27.9435 17.5547 27.9453H17.4208C17.3138 27.9278 17.2114 27.8894 17.1193 27.8323C17.0273 27.7752 16.9474 27.7004 16.8842 27.6124C16.8211 27.5244 16.7759 27.4247 16.7513 27.3192C16.7267 27.2137 16.7231 27.1044 16.7408 26.9975L17.1529 24.5248C17.1822 24.3552 17.2633 24.1988 17.3851 24.0771C17.5068 23.9553 17.6632 23.8742 17.8329 23.8449L20.3055 23.4327C20.5214 23.3972 20.7425 23.4489 20.9203 23.5764C21.098 23.704 21.2178 23.8969 21.2534 24.1127C21.2889 24.3286 21.2372 24.5497 21.1097 24.7275C20.9822 24.9052 20.7893 25.0251 20.5734 25.0606L19.6461 25.2151L20.1716 25.7612C20.7921 26.3722 21.6291 26.713 22.5 26.709C22.9331 26.7111 23.3622 26.6265 23.7621 26.4602C24.162 26.2939 24.5246 26.0492 24.8284 25.7406C24.9829 25.5864 25.1923 25.4999 25.4105 25.4999C25.6288 25.4999 25.8381 25.5864 25.9926 25.7406C26.0702 25.8164 26.1318 25.9069 26.1739 26.0069C26.216 26.1068 26.2377 26.2142 26.2377 26.3227C26.2377 26.4311 26.216 26.5385 26.1739 26.6385C26.1318 26.7384 26.0702 26.829 25.9926 26.9048ZM28.2592 19.8371L27.8471 22.3098C27.8178 22.4794 27.7367 22.6358 27.6149 22.7575C27.4932 22.8793 27.3368 22.9604 27.1671 22.9897L24.6945 23.4018H24.5605C24.3656 23.4 24.1775 23.3299 24.0288 23.2038C23.8802 23.0777 23.7803 22.9036 23.7466 22.7116C23.729 22.6047 23.7325 22.4953 23.7571 22.3898C23.7818 22.2843 23.8269 22.1847 23.8901 22.0966C23.9533 22.0086 24.0331 21.9339 24.1252 21.8768C24.2173 21.8196 24.3197 21.7812 24.4266 21.7637L25.3539 21.6092L24.8284 21.0631C24.2079 20.452 23.3709 20.1113 22.5 20.1153C22.0669 20.1132 21.6378 20.1978 21.2379 20.3641C20.838 20.5304 20.4754 20.7751 20.1716 21.0837C20.0171 21.2379 19.8077 21.3244 19.5895 21.3244C19.3712 21.3244 19.1619 21.2379 19.0074 21.0837C18.9298 21.0079 18.8682 20.9174 18.8261 20.8174C18.784 20.7174 18.7623 20.6101 18.7623 20.5016C18.7623 20.3932 18.784 20.2858 18.8261 20.1858C18.8682 20.0859 18.9298 19.9953 19.0074 19.9195C19.465 19.4591 20.0092 19.0937 20.6086 18.8444C21.208 18.5951 21.8508 18.4667 22.5 18.4667C23.1492 18.4667 23.792 18.5951 24.3914 18.8444C24.9908 19.0937 25.5349 19.4591 25.9926 19.9195C26.0029 19.9195 26.0029 19.9195 26.0029 19.9298L26.4872 20.4244L26.6314 19.5692C26.6669 19.3534 26.7867 19.1604 26.9645 19.0329C27.1423 18.9054 27.3634 18.8537 27.5792 18.8892C27.7951 18.9248 27.988 19.0446 28.1155 19.2223C28.2431 19.4001 28.2948 19.6212 28.2592 19.8371Z" fill="#273E56"/>
<rect x="1" y="1.5" width="43" height="43" rx="21.5" stroke="#273E56" stroke-width="2"/>
</svg>
