<svg width="24" height="24" viewBox="0 0 24 24" fill="none" xmlns="http://www.w3.org/2000/svg">
<g clip-path="url(#clip0_234_23890)">
<path d="M18.5315 6.63571C16.9534 5.72471 14.9354 6.26602 14.0234 7.84421L11.7245 11.8265C11.0593 12.9765 11.9157 13.3783 12.8706 13.9509L15.0826 15.2276C15.8318 15.6597 16.7886 15.4032 17.2206 14.6551L19.5839 10.5625C20.3778 9.18721 19.9068 7.42965 18.5315 6.63571Z" fill="#EA4335"/>
<path d="M15.9303 8.28398L13.7182 7.00723C12.4971 6.32936 11.8055 6.28448 11.3042 7.08136L8.04164 12.7316C7.13064 14.3087 7.67289 16.3258 9.25007 17.2348C10.6253 18.0287 12.3829 17.5577 13.1769 16.1824L16.5019 10.4229C16.9359 9.67386 16.6794 8.71605 15.9303 8.28398Z" fill="#FBBC04"/>
<path d="M16.356 5.37937L14.8023 4.48193C13.0837 3.49005 10.8862 4.07818 9.89425 5.79674L6.936 10.9202C6.49906 11.6762 6.7585 12.6437 7.51444 13.0797L9.25444 14.0843C10.1137 14.5808 11.2119 14.2862 11.7084 13.4269L15.088 7.5738C15.7883 6.36149 17.3382 5.94599 18.5505 6.6463L16.356 5.37937Z" fill="#34A853"/>
<path d="M10.3146 7.263L8.63505 6.29544C7.88599 5.86431 6.92918 6.11981 6.49712 6.867L4.48193 10.349C3.49005 12.0627 4.07818 14.2552 5.79674 15.2443L7.07543 15.9807L8.6263 16.8741L9.2993 17.2612C8.10449 16.4615 7.72505 14.859 8.45555 13.5969L8.97743 12.6956L10.8881 9.39406C11.3192 8.64887 11.0627 7.69412 10.3146 7.263Z" fill="#4285F4"/>
</g>
<rect x="0.25" y="0.25" width="23.5" height="23.5" rx="3.75" stroke="#B4B5BE" stroke-width="0.5"/>
<defs>
<clipPath id="clip0_234_23890">
<rect width="16" height="13.625" fill="white" transform="translate(4 4)"/>
</clipPath>
</defs>
</svg>
