<svg width="30" height="30" viewBox="0 0 30 30" fill="none" xmlns="http://www.w3.org/2000/svg">
<path d="M13.497 3.58217C13.91 3.21112 14.4456 3.00586 15.0007 3.00586C15.5559 3.00586 16.0915 3.21112 16.5045 3.58217L24.7545 10.9952C24.9891 11.2061 25.1767 11.464 25.3051 11.7522C25.4335 12.0403 25.4999 12.3522 25.5 12.6677V23.2502C25.5 23.8469 25.2629 24.4192 24.841 24.8412C24.419 25.2631 23.8467 25.5002 23.25 25.5002H19.5C18.9033 25.5002 18.331 25.2631 17.909 24.8412C17.4871 24.4192 17.25 23.8469 17.25 23.2502V18.0002C17.25 17.8013 17.171 17.6105 17.0303 17.4698C16.8897 17.3292 16.6989 17.2502 16.5 17.2502H13.5C13.3011 17.2502 13.1103 17.3292 12.9697 17.4698C12.829 17.6105 12.75 17.8013 12.75 18.0002V23.2502C12.75 23.8469 12.5129 24.4192 12.091 24.8412C11.669 25.2631 11.0967 25.5002 10.5 25.5002H6.75C6.15326 25.5002 5.58097 25.2631 5.15901 24.8412C4.73705 24.4192 4.5 23.8469 4.5 23.2502V12.6677C4.5 12.0302 4.77 11.4227 5.247 10.9952L13.497 3.58217ZM15.501 4.69817C15.3634 4.57463 15.1849 4.50629 15 4.50629C14.8151 4.50629 14.6366 4.57463 14.499 4.69817L6.249 12.1112C6.17085 12.1813 6.1083 12.2671 6.0654 12.363C6.02251 12.4588 6.00023 12.5626 6 12.6677V23.2502C6 23.4491 6.07902 23.6398 6.21967 23.7805C6.36032 23.9212 6.55109 24.0002 6.75 24.0002H10.5C10.6989 24.0002 10.8897 23.9212 11.0303 23.7805C11.171 23.6398 11.25 23.4491 11.25 23.2502V18.0002C11.25 17.4034 11.4871 16.8311 11.909 16.4092C12.331 15.9872 12.9033 15.7502 13.5 15.7502H16.5C17.0967 15.7502 17.669 15.9872 18.091 16.4092C18.5129 16.8311 18.75 17.4034 18.75 18.0002V23.2502C18.75 23.4491 18.829 23.6398 18.9697 23.7805C19.1103 23.9212 19.3011 24.0002 19.5 24.0002H23.25C23.4489 24.0002 23.6397 23.9212 23.7803 23.7805C23.921 23.6398 24 23.4491 24 23.2502V12.6677C23.9998 12.5626 23.9775 12.4588 23.9346 12.363C23.8917 12.2671 23.8292 12.1813 23.751 12.1112L15.501 4.69817Z" fill="#777A86"/>
</svg>
