<svg width="31" height="31" viewBox="0 0 31 31" fill="none" xmlns="http://www.w3.org/2000/svg">
<rect width="31" height="31" rx="15.5" fill="#273E56"/>
<path d="M18.8651 9.5171C18.8651 9.5171 19.7064 11.1997 18.8651 13.2561M21.4824 8.02148C21.4824 8.02148 23.165 11.0501 21.4824 14.7517M13.6305 14.0039C13.9742 14.0039 14.3145 13.9362 14.6321 13.8047C14.9496 13.6732 15.2382 13.4804 15.4812 13.2373C15.7242 12.9943 15.917 12.7058 16.0486 12.3882C16.1801 12.0707 16.2478 11.7303 16.2478 11.3866C16.2478 11.0429 16.1801 10.7026 16.0486 10.385C15.917 10.0675 15.7242 9.77893 15.4812 9.53589C15.2382 9.29285 14.9496 9.10006 14.6321 8.96852C14.3145 8.83699 13.9742 8.76929 13.6305 8.76929C12.9363 8.76929 12.2706 9.04504 11.7797 9.53589C11.2889 10.0267 11.0131 10.6925 11.0131 11.3866C11.0131 12.0808 11.2889 12.7465 11.7797 13.2373C12.2706 13.7282 12.9363 14.0039 13.6305 14.0039ZM8.02191 21.7811V22.2298H19.239V21.7811C19.239 20.106 19.239 19.2685 18.913 18.6284C18.6262 18.0656 18.1686 17.608 17.6058 17.3212C16.9657 16.9952 16.1281 16.9952 14.4531 16.9952H12.8079C11.1328 16.9952 10.2952 16.9952 9.65512 17.3212C9.09231 17.608 8.63473 18.0656 8.34796 18.6284C8.02191 19.2685 8.02191 20.106 8.02191 21.7811Z" stroke="white" stroke-width="1.16541" stroke-linecap="round" stroke-linejoin="round"/>
</svg>
