<svg width="47" height="48" viewBox="0 0 47 48" fill="none" xmlns="http://www.w3.org/2000/svg">
<rect y="0.5" width="47" height="47" rx="23.5" fill="#273E56"/>
<path d="M23.5 26C22.6667 26 21.9583 25.7083 21.375 25.125C20.7917 24.5417 20.5 23.8333 20.5 23V17C20.5 16.1667 20.7917 15.4583 21.375 14.875C21.9583 14.2917 22.6667 14 23.5 14C24.3333 14 25.0417 14.2917 25.625 14.875C26.2083 15.4583 26.5 16.1667 26.5 17V23C26.5 23.8333 26.2083 24.5417 25.625 25.125C25.0417 25.7083 24.3333 26 23.5 26ZM23.5 33C23.2167 33 22.9793 32.904 22.788 32.712C22.596 32.5207 22.5 32.2833 22.5 32V29.9C20.95 29.7 19.6333 29.0583 18.55 27.975C17.4667 26.8917 16.8083 25.5917 16.575 24.075C16.525 23.7917 16.6 23.5417 16.8 23.325C17 23.1083 17.2667 23 17.6 23C17.8333 23 18.0417 23.0873 18.225 23.262C18.4083 23.4373 18.525 23.65 18.575 23.9C18.7917 25.0667 19.3583 26.0417 20.275 26.825C21.1917 27.6083 22.2667 28 23.5 28C24.7333 28 25.8083 27.6083 26.725 26.825C27.6417 26.0417 28.2083 25.0667 28.425 23.9C28.475 23.65 28.596 23.4373 28.788 23.262C28.9793 23.0873 29.1917 23 29.425 23C29.7417 23 30 23.1083 30.2 23.325C30.4 23.5417 30.475 23.7917 30.425 24.075C30.1917 25.5917 29.5333 26.8917 28.45 27.975C27.3667 29.0583 26.05 29.7 24.5 29.9V32C24.5 32.2833 24.4043 32.5207 24.213 32.712C24.021 32.904 23.7833 33 23.5 33Z" fill="white"/>
</svg>
