<svg width="47" height="48" viewBox="0 0 47 48" fill="none" xmlns="http://www.w3.org/2000/svg">
<path d="M15.5 24V18C15.5 17.4696 15.7107 16.9609 16.0858 16.5858C16.4609 16.2107 16.9696 16 17.5 16H29.5C30.0304 16 30.5391 16.2107 30.9142 16.5858C31.2893 16.9609 31.5 17.4696 31.5 18V30C31.5 30.5304 31.2893 31.0391 30.9142 31.4142C30.5391 31.7893 30.0304 32 29.5 32H23.5M26.5 25H22.5M22.5 25V21M22.5 25L27.5 20M14.5 29C14.5 28.7348 14.6054 28.4804 14.7929 28.2929C14.9804 28.1054 15.2348 28 15.5 28H18.5C18.7652 28 19.0196 28.1054 19.2071 28.2929C19.3946 28.4804 19.5 28.7348 19.5 29V32C19.5 32.2652 19.3946 32.5196 19.2071 32.7071C19.0196 32.8946 18.7652 33 18.5 33H15.5C15.2348 33 14.9804 32.8946 14.7929 32.7071C14.6054 32.5196 14.5 32.2652 14.5 32V29Z" stroke="#273E56" stroke-width="2" stroke-linecap="round" stroke-linejoin="round"/>
<rect x="1" y="1.5" width="45" height="45" rx="22.5" stroke="#273E56" stroke-width="2"/>
</svg>
