<svg width="14" height="14" viewBox="0 0 14 14" fill="none" xmlns="http://www.w3.org/2000/svg">
<path d="M12.8327 6.99947L13.5687 5.72747C13.6572 5.57443 13.6812 5.39253 13.6356 5.22175C13.59 5.05098 13.4784 4.90532 13.3254 4.8168L12.052 4.0808V2.61414C12.052 2.43732 11.9818 2.26776 11.8568 2.14273C11.7318 2.01771 11.5622 1.94747 11.3854 1.94747H9.91938L9.18405 0.674802C9.09524 0.52208 8.94986 0.410472 8.77938 0.364135C8.69482 0.341213 8.60656 0.335302 8.5197 0.346746C8.43284 0.35819 8.34912 0.38676 8.27338 0.430802L7.00005 1.1668L5.72671 0.430135C5.5736 0.341734 5.39163 0.317777 5.22085 0.363536C5.05007 0.409294 4.90446 0.52102 4.81605 0.674135L4.08005 1.94747H2.61405C2.43724 1.94747 2.26767 2.01771 2.14264 2.14273C2.01762 2.26776 1.94738 2.43732 1.94738 2.61414V4.08014L0.674048 4.81614C0.598069 4.85984 0.531475 4.91812 0.478091 4.98764C0.424707 5.05716 0.385585 5.13654 0.362974 5.22123C0.340362 5.30591 0.334707 5.39423 0.346332 5.48111C0.357957 5.56799 0.386634 5.65171 0.430714 5.72747L1.16671 6.99947L0.430714 8.27147C0.342707 8.42465 0.318829 8.60642 0.364287 8.77713C0.409744 8.94785 0.520851 9.09367 0.673381 9.1828L1.94671 9.9188V11.3848C1.94671 11.5616 2.01695 11.7312 2.14198 11.8562C2.267 11.9812 2.43657 12.0515 2.61338 12.0515H4.08005L4.81605 13.3248C4.87507 13.4257 4.95934 13.5095 5.06057 13.5679C5.16179 13.6264 5.27649 13.6575 5.39338 13.6581C5.50938 13.6581 5.62471 13.6275 5.72738 13.5681L6.99938 12.8321L8.27271 13.5681C8.42579 13.6564 8.60764 13.6804 8.77836 13.6348C8.94908 13.5891 9.09474 13.4777 9.18338 13.3248L9.91871 12.0515H11.3847C11.5615 12.0515 11.7311 11.9812 11.8561 11.8562C11.9811 11.7312 12.0514 11.5616 12.0514 11.3848V9.9188L13.3247 9.1828C13.4006 9.13897 13.467 9.08062 13.5203 9.01109C13.5736 8.94156 13.6127 8.8622 13.6353 8.77757C13.6579 8.69293 13.6635 8.60467 13.652 8.51783C13.6405 8.43099 13.612 8.34727 13.568 8.27147L12.8327 6.99947ZM5.33271 3.65947C5.59802 3.65956 5.85242 3.76503 6.03996 3.9527C6.2275 4.14036 6.3328 4.39483 6.33271 4.66014C6.33263 4.92544 6.22715 5.17984 6.03949 5.36738C5.85183 5.55492 5.59735 5.66022 5.33205 5.66014C5.06674 5.66005 4.81234 5.55457 4.6248 5.36691C4.43727 5.17925 4.33196 4.92477 4.33205 4.65947C4.33214 4.39416 4.43761 4.13976 4.62527 3.95222C4.81294 3.76469 5.06741 3.65938 5.33271 3.65947ZM5.53271 10.0595L4.46605 9.26014L8.46605 3.9268L9.53271 4.72614L5.53271 10.0595ZM8.66605 10.3261C8.53468 10.3261 8.40461 10.3002 8.28326 10.2499C8.16191 10.1995 8.05166 10.1258 7.9588 10.0329C7.86594 9.93999 7.7923 9.82969 7.74207 9.70831C7.69184 9.58692 7.666 9.45683 7.66605 9.32547C7.66609 9.1941 7.69201 9.06403 7.74232 8.94268C7.79263 8.82133 7.86635 8.71108 7.95927 8.61822C8.0522 8.52537 8.1625 8.45172 8.28388 8.40149C8.40526 8.35126 8.53535 8.32543 8.66671 8.32547C8.93202 8.32556 9.18642 8.43103 9.37396 8.6187C9.5615 8.80636 9.6668 9.06083 9.66671 9.32614C9.66663 9.59144 9.56115 9.84584 9.37349 10.0334C9.18583 10.2209 8.93135 10.3262 8.66605 10.3261Z" fill="#20BE79"/>
</svg>
