<svg width="24" height="24" viewBox="0 0 24 24" fill="none" xmlns="http://www.w3.org/2000/svg">
<g clip-path="url(#clip0_234_23902)">
<path d="M10.804 10.6273H12.77V13.7553C12.502 13.8893 12.1446 13.934 11.8766 13.934C11.162 13.934 10.804 13.5766 10.804 12.772V10.6273ZM19.784 13.838C18.7686 18.1373 14.4606 20.7993 10.162 19.784C5.86262 18.7693 3.20062 14.4606 4.21596 10.162C5.23129 5.86262 9.53929 3.20062 13.838 4.21596C18.1373 5.23129 20.7993 9.53929 19.784 13.838ZM15.63 9.91262C15.6272 9.75948 15.5652 9.61337 15.4569 9.50506C15.3485 9.39675 15.2024 9.33469 15.0493 9.33196H13.9766L11.5193 6.51729C11.296 6.24929 10.9386 6.15996 10.5813 6.24929L9.73196 6.51662C9.59796 6.56129 9.55329 6.73996 9.64262 6.82929L12.3233 9.37596H8.25729C8.12329 9.37596 8.03396 9.46529 8.03396 9.59929V10.046C8.03396 10.3586 8.30196 10.6266 8.61462 10.6266H9.23996V12.7713C9.23996 14.38 10.0886 15.318 11.5186 15.318C11.9653 15.318 12.3226 15.2733 12.77 15.0946V16.5246C12.77 16.9266 13.0826 17.2393 13.4846 17.2393H14.11C14.1795 17.2346 14.245 17.2049 14.2943 17.1556C14.3435 17.1063 14.3733 17.0408 14.378 16.9713V10.5826H15.406C15.54 10.5826 15.6293 10.4933 15.6293 10.3593L15.63 9.91262Z" fill="#643CB5"/>
</g>
<rect x="0.25" y="0.25" width="23.5" height="23.5" rx="3.75" stroke="#B4B5BE" stroke-width="0.5"/>
<defs>
<clipPath id="clip0_234_23902">
<rect width="16" height="16" fill="white" transform="translate(4 4)"/>
</clipPath>
</defs>
</svg>
