<svg width="199" height="180" viewBox="0 0 199 180" fill="none" xmlns="http://www.w3.org/2000/svg">
<g clip-path="url(#clip0_336_5497)">
<path d="M137.044 179.368H80.7725C72.3325 179.368 65.466 172.502 65.466 164.062V15.3065C65.466 6.8665 72.3325 0 80.7725 0H137.044C145.483 0 152.35 6.8665 152.35 15.3065C153.397 75.0419 155.184 141.936 152.35 164.062C152.35 172.502 145.483 179.368 137.044 179.368Z" fill="#3F3D56"/>
<path d="M153.135 54.7178C152.778 54.7178 152.487 55.0082 152.487 55.3653V76.0865C152.487 76.4437 152.778 76.7341 153.135 76.7341C153.492 76.7341 153.782 76.4437 153.782 76.0865V55.3653C153.782 55.0082 153.492 54.7178 153.135 54.7178Z" fill="#3F3D56"/>
<path d="M150.893 15.3069V164.059C150.893 171.406 145.175 177.415 137.946 177.881H137.942C137.835 177.887 137.729 177.894 137.619 177.897C137.427 177.907 137.236 177.91 137.042 177.91C137.042 177.91 136.33 177.858 135.028 177.761C133.714 177.664 131.8 177.518 129.414 177.327C128.699 177.272 127.944 177.211 127.148 177.146C125.561 177.017 123.819 176.874 121.951 176.712C121.207 176.651 120.436 176.583 119.649 176.515C115.628 176.168 111.125 175.764 106.375 175.304C105.572 175.229 104.762 175.152 103.947 175.071C103.733 175.048 66.923 165.795 66.923 164.059V15.3069C66.923 7.65624 73.1232 1.45605 80.7739 1.45605H89.0429C90.3639 1.45605 91.4259 2.48564 91.5392 3.80338C91.5489 3.8908 91.5586 3.97821 91.5748 4.06563C91.8144 5.38986 93.0285 6.31259 94.3754 6.31259H123.441C124.788 6.31259 126.002 5.38986 126.241 4.06563C126.257 3.97821 126.267 3.89081 126.277 3.80338C126.39 2.48564 127.452 1.45605 128.773 1.45605H137.042C144.693 1.45605 150.893 7.65624 150.893 15.3069Z" fill="white"/>
<path d="M65.1422 39.1768C64.7851 39.1768 64.4947 39.4672 64.4947 39.8243V45.0046C64.4947 45.3617 64.7851 45.6521 65.1422 45.6521C65.4994 45.6521 65.7898 45.3617 65.7898 45.0046V39.8243C65.7898 39.4672 65.4994 39.1768 65.1422 39.1768Z" fill="#3F3D56"/>
<path d="M65.1422 54.7178C64.7851 54.7178 64.4947 55.0082 64.4947 55.3653V65.4022C64.4947 65.7593 64.7851 66.0497 65.1422 66.0497C65.4994 66.0497 65.7898 65.7593 65.7898 65.4022V55.3653C65.7898 55.0082 65.4994 54.7178 65.1422 54.7178Z" fill="#3F3D56"/>
<path d="M65.1422 68.9629C64.7851 68.9629 64.4947 69.2533 64.4947 69.6104V79.6473C64.4947 80.0044 64.7851 80.2948 65.1422 80.2948C65.4994 80.2948 65.7898 80.0044 65.7898 79.6473V69.6104C65.7898 69.2533 65.4994 68.9629 65.1422 68.9629Z" fill="#3F3D56"/>
<path d="M88.8304 3.72266H76.4212C76.3611 3.72266 76.3123 3.77141 76.3123 3.83154V5.23261C76.3123 5.29275 76.3611 5.3415 76.4212 5.3415H88.8304C88.8906 5.3415 88.9393 5.29275 88.9393 5.23261V3.83154C88.9393 3.77141 88.8906 3.72266 88.8304 3.72266Z" fill="#E6E6E6"/>
<path d="M130.819 5.34308C131.535 5.34308 132.114 4.76326 132.114 4.04801C132.114 3.33275 131.535 2.75293 130.819 2.75293C130.104 2.75293 129.524 3.33275 129.524 4.04801C129.524 4.76326 130.104 5.34308 130.819 5.34308Z" fill="#E6E6E6"/>
<path d="M134.381 5.34308C135.096 5.34308 135.676 4.76326 135.676 4.04801C135.676 3.33275 135.096 2.75293 134.381 2.75293C133.666 2.75293 133.086 3.33275 133.086 4.04801C133.086 4.76326 133.666 5.34308 134.381 5.34308Z" fill="#E6E6E6"/>
<path d="M137.942 5.34308C138.658 5.34308 139.237 4.76326 139.237 4.04801C139.237 3.33275 138.658 2.75293 137.942 2.75293C137.227 2.75293 136.647 3.33275 136.647 4.04801C136.647 4.76326 137.227 5.34308 137.942 5.34308Z" fill="#E6E6E6"/>
<path d="M5.02448 179.403C5.02448 179.635 5.21052 179.821 5.4422 179.821H197.897C198.129 179.821 198.315 179.635 198.315 179.403C198.315 179.171 198.129 178.985 197.897 178.985H5.4422C5.21052 178.985 5.02448 179.171 5.02448 179.403Z" fill="#CCCCCC"/>
<path d="M66.3877 176.661L62.441 176.661L60.5635 161.438L66.3885 161.438L66.3877 176.661Z" fill="#FFB6B6"/>
<path d="M52.8659 176.572C52.7431 176.779 52.6782 177.447 52.6782 177.688C52.6782 178.427 53.2779 179.027 54.0177 179.027H66.2401C66.7448 179.027 67.1539 178.618 67.1539 178.113V177.604C67.1539 177.604 67.7585 176.075 66.5137 174.19C66.5137 174.19 64.9666 175.666 62.6547 173.354L61.973 172.119L57.0381 175.728L54.3028 176.065C53.7044 176.139 53.1738 176.054 52.8659 176.572Z" fill="#2F2E41"/>
<path d="M44.562 155.516L40.6154 155.503L38.7863 140.274L44.6111 140.293L44.562 155.516Z" fill="#FFB6B6"/>
<path d="M31.0406 155.384C30.917 155.59 30.8501 156.258 30.8493 156.499C30.847 157.239 31.4448 157.84 32.1846 157.843L44.4069 157.881C44.9115 157.883 45.322 157.475 45.3236 156.97L45.3252 156.462C45.3252 156.462 45.9347 154.934 44.6959 153.045C44.6959 153.045 43.144 154.516 40.8395 152.197L40.1617 150.96L35.2154 154.553L32.479 154.881C31.8804 154.953 31.35 154.866 31.0406 155.384Z" fill="#2F2E41"/>
<path d="M60.6315 84.2422L55.7173 84.5932C55.7173 84.5932 39.081 94.052 37.677 96.1581C36.273 98.2641 34.3424 101.248 36.0974 104.407C37.8525 107.566 36.5167 145.816 36.5167 145.816L44.9034 143.919L50.2767 103.899L61.509 102.319C61.509 102.319 65.3701 110.649 63.9661 117.541C62.562 124.433 61.86 128.645 61.86 128.645L60.105 169.362L66.9497 169.187L73.0923 131.453L83.6226 101.617L69.9332 85.4707L60.6315 84.2422Z" fill="#DA9E96"/>
<path d="M84.8512 41.0684L74.6719 42.1214L73.6189 45.6315L63.7906 50.8966L66.9497 73.0103L64.4926 76.8714L65.5456 80.7325C65.5456 80.7325 62.7376 81.0835 63.0886 83.1896L56.7704 84.2426C56.7704 84.2426 65.1504 85.9534 66.9276 94.3998C68.7047 102.846 83.4471 103.899 83.4471 103.899L95.0305 67.7451L96.0835 46.3335L88.0103 44.2274L84.8512 41.0684Z" fill="#E6E6E6"/>
<path d="M79.4865 39.7355C83.8568 39.7355 87.3997 36.1927 87.3997 31.8223C87.3997 27.452 83.8568 23.9092 79.4865 23.9092C75.1162 23.9092 71.5734 27.452 71.5734 31.8223C71.5734 36.1927 75.1162 39.7355 79.4865 39.7355Z" fill="#FFB6B6"/>
<path d="M75.3739 38.9616C75.3739 38.9616 68.3537 38.6106 69.0558 32.9945C67.3182 27.0139 68.8562 23.1307 74.3209 21.7621C74.3209 21.7621 75.725 21.4111 76.076 21.4111C80.6928 21.4111 83.0962 22.8152 83.0962 22.8152C83.0962 22.8152 82.7452 21.425 83.0962 21.7691C83.4472 22.1132 83.7982 22.8152 83.7982 22.8152C83.7982 22.8152 87.3083 24.5702 87.3083 28.0803C87.3083 31.5904 87.3083 30.1864 87.3083 30.1864C87.3083 30.1864 86.6063 30.1864 85.9042 28.0803C85.2022 25.9743 80.6571 27.3783 80.6571 27.3783L80.9901 28.0803L79.9371 27.7293L78.884 28.7823L78.182 28.4313C78.182 28.4313 75.3739 28.4313 75.725 28.4313C76.076 28.4313 75.8314 30.8168 75.8314 30.8168L73.2679 33.6965L76.076 38.9616H75.3739Z" fill="#2F2E41"/>
<path d="M37.9723 80.8566C35.9738 81.9473 34.9165 83.8624 35.6105 85.1341C36.3046 86.4058 38.4873 86.5526 40.4857 85.4619C41.3605 84.9845 42.0549 84.3491 42.5011 83.6788L50.911 78.9511L48.6084 75.0518L40.5622 80.1263C39.7571 80.1389 38.8471 80.3792 37.9723 80.8566Z" fill="#FFB6B6"/>
<path d="M66.3333 51.0605C66.3333 51.0605 63.0365 49.8053 61.9007 51.3162C60.7648 52.8271 53.2613 71.1605 53.2613 71.1605L42.2523 76.9101L45.3481 82.3012L59.5244 77.5814L68.8777 60.4755L66.3333 51.0605Z" fill="#E6E6E6"/>
<path d="M170.292 111.269V148.476C170.292 151.766 167.615 154.443 164.325 154.443H72.3604C69.07 154.443 66.3932 151.766 66.3932 148.476V111.269C66.3932 107.979 69.07 105.302 72.3604 105.302H164.325C167.615 105.302 170.292 107.979 170.292 111.269Z" fill="white"/>
<path d="M170.292 111.269V148.476C170.292 151.766 167.615 154.443 164.325 154.443H72.3604C69.07 154.443 66.3932 151.766 66.3932 148.476V111.269C66.3932 107.979 69.07 105.302 72.3604 105.302H164.325C167.615 105.302 170.292 107.979 170.292 111.269ZM164.325 153.741C167.233 153.741 169.59 151.384 169.59 148.476V129.718C169.59 116.621 158.973 106.004 145.876 106.004H72.3604C69.4526 106.004 67.0953 108.361 67.0953 111.269V148.476C67.0953 151.384 69.4526 153.741 72.3604 153.741H164.325Z" fill="#3F3D56"/>
<path d="M107.676 127.78H95.6638C95.361 127.78 95.1146 128.027 95.1146 128.329C95.1146 128.632 95.361 128.879 95.6638 128.879H107.676C107.978 128.879 108.225 128.632 108.225 128.329C108.225 128.027 107.978 127.78 107.676 127.78Z" fill="#A6B8FF"/>
<path d="M125.928 127.78H113.916C113.614 127.78 113.367 128.027 113.367 128.329C113.367 128.632 113.614 128.879 113.916 128.879H125.928C126.231 128.879 126.477 128.632 126.477 128.329C126.477 128.027 126.231 127.78 125.928 127.78Z" fill="#A6B8FF"/>
<path d="M107.676 133.784H95.6638C95.361 133.784 95.1146 134.03 95.1146 134.333C95.1146 134.636 95.361 134.883 95.6638 134.883H107.676C107.978 134.883 108.225 134.636 108.225 134.333C108.225 134.03 107.978 133.784 107.676 133.784Z" fill="#A6B8FF"/>
<path d="M125.928 133.784H113.916C113.614 133.784 113.367 134.03 113.367 134.333C113.367 134.636 113.614 134.883 113.916 134.883H125.928C126.231 134.883 126.477 134.636 126.477 134.333C126.477 134.03 126.231 133.784 125.928 133.784Z" fill="#A6B8FF"/>
<path d="M144.73 134.333C144.73 134.03 144.484 133.784 144.181 133.784H132.169C131.866 133.784 131.62 134.03 131.62 134.333C131.62 134.636 131.866 134.883 132.169 134.883H144.181C144.484 134.883 144.73 134.636 144.73 134.333Z" fill="#A6B8FF"/>
<path d="M100.656 122.986C100.958 122.986 101.205 122.74 101.205 122.437C101.205 122.134 100.958 121.888 100.656 121.888H88.6438C88.3409 121.888 88.0945 122.134 88.0945 122.437C88.0945 122.74 88.3409 122.986 88.6438 122.986H100.656Z" fill="#A6B8FF"/>
<path d="M136.03 122.762H148.042C148.345 122.762 148.591 122.516 148.591 122.213C148.591 121.91 148.345 121.664 148.042 121.664H136.03C135.727 121.664 135.481 121.91 135.481 122.213C135.481 122.516 135.727 122.762 136.03 122.762Z" fill="#A6B8FF"/>
<path d="M105.716 122.879H130.619C130.922 122.879 131.168 122.632 131.168 122.329C131.168 122.027 130.922 121.78 130.619 121.78H105.716C105.413 121.78 105.167 122.027 105.167 122.329C105.167 122.632 105.413 122.879 105.716 122.879Z" fill="#A6B8FF"/>
<path d="M115.514 139.24H103.502C103.199 139.24 102.953 139.487 102.953 139.789C102.953 140.092 103.199 140.339 103.502 140.339H115.514C115.817 140.339 116.063 140.092 116.063 139.789C116.063 139.487 115.817 139.24 115.514 139.24Z" fill="#A6B8FF"/>
<path d="M154.308 110.988V148.195C154.308 151.485 151.631 154.162 148.341 154.162H111.134C107.843 154.162 105.167 151.485 105.167 148.195V110.988C105.167 107.697 107.843 105.021 111.134 105.021H148.341C151.631 105.021 154.308 107.697 154.308 110.988Z" fill="white"/>
<path d="M154.308 110.988V148.195C154.308 151.485 151.631 154.162 148.341 154.162H111.134C107.843 154.162 105.167 151.485 105.167 148.195V110.988C105.167 107.697 107.843 105.021 111.134 105.021H148.341C151.631 105.021 154.308 107.697 154.308 110.988ZM146.033 153.46C150.215 153.46 153.606 150.069 153.606 145.887V129.436C153.606 116.34 142.989 105.723 129.892 105.723H111.134C108.226 105.723 105.869 108.08 105.869 110.988V143.004C105.869 148.778 110.55 153.46 116.325 153.46L146.033 153.46Z" fill="#3F3D56"/>
<path d="M134.69 120.217H122.678C122.376 120.217 122.129 119.97 122.129 119.667C122.129 119.364 122.376 119.118 122.678 119.118H134.69C134.993 119.118 135.239 119.364 135.239 119.667C135.239 119.97 134.993 120.217 134.69 120.217Z" fill="#A6B8FF"/>
<path d="M134.69 131.926H122.678C122.376 131.926 122.129 131.68 122.129 131.377C122.129 131.074 122.376 130.828 122.678 130.828H134.69C134.993 130.828 135.239 131.074 135.239 131.377C135.239 131.68 134.993 131.926 134.69 131.926Z" fill="#A6B8FF"/>
<path d="M128.723 148.075H116.711C116.408 148.075 116.162 147.829 116.162 147.526C116.162 147.223 116.408 146.977 116.711 146.977H128.723C129.026 146.977 129.272 147.223 129.272 147.526C129.272 147.829 129.026 148.075 128.723 148.075Z" fill="#A6B8FF"/>
<path d="M141.136 126.076H116.233C115.93 126.076 115.683 125.829 115.683 125.527C115.683 125.224 115.93 124.978 116.233 124.978H141.136C141.439 124.978 141.685 125.224 141.685 125.527C141.685 125.829 141.439 126.076 141.136 126.076Z" fill="#A6B8FF"/>
<path d="M147.307 90.3695C147.307 78.7626 137.497 72.3776 126.291 69.3534C111.924 65.4761 101.401 73.3219 105.275 90.3695C106.152 94.2332 108.252 98.7458 110.851 102.606H131.474C138.363 98.1209 147.307 99.3786 147.307 90.3695Z" fill="#A6B8FF"/>
<path d="M125.982 112.31C127.156 110.074 128.643 108.461 130.282 107.232H110.965C115.937 114.334 122.53 118.892 125.982 112.31Z" fill="#A6B8FF"/>
<path d="M123.753 77.9449C124.993 77.9449 125.999 78.9502 125.999 80.1903V84.681H121.508V80.1903C121.508 78.9502 122.513 77.9449 123.753 77.9449ZM127.121 84.681V80.1903C127.121 78.3302 125.614 76.8223 123.753 76.8223C121.893 76.8223 120.385 78.3302 120.385 80.1903V84.681C119.145 84.681 118.14 85.6862 118.14 86.9263V92.5396C118.14 93.7797 119.145 94.785 120.385 94.785H127.121C128.362 94.785 129.367 93.7797 129.367 92.5396V86.9263C129.367 85.6862 128.362 84.681 127.121 84.681ZM120.385 85.8036H127.121C127.741 85.8036 128.244 86.3063 128.244 86.9263V92.5396C128.244 93.1597 127.741 93.6623 127.121 93.6623H120.385C119.765 93.6623 119.263 93.1597 119.263 92.5396V86.9263C119.263 86.3063 119.765 85.8036 120.385 85.8036Z" fill="white"/>
<path d="M91.6664 104.09C91.3957 106.35 92.3424 108.322 93.7809 108.495C95.2194 108.667 96.605 106.974 96.8758 104.714C96.9943 103.724 96.8795 102.79 96.5923 102.038L97.6193 92.4447L93.1073 92.0586L92.5738 101.556C92.1171 102.219 91.7849 103.1 91.6664 104.09Z" fill="#FFB6B6"/>
<path d="M92.7489 46.8598C92.7489 46.8598 97.663 45.4558 98.7161 47.5618C99.7691 49.6679 102.226 77.3977 102.226 77.3977L97.4875 99.5321L92.0469 98.1073L94.8549 75.6426L90.9938 58.7942L92.7489 46.8598Z" fill="#E6E6E6"/>
<path d="M20.5341 114.198C31.8747 114.198 41.0682 105.005 41.0682 93.664C41.0682 82.3233 31.8747 73.1299 20.5341 73.1299C9.19342 73.1299 0 82.3233 0 93.664C0 105.005 9.19342 114.198 20.5341 114.198Z" fill="#A6B8FF"/>
<path d="M20.5341 84.4714C21.9846 84.4714 23.1605 85.6474 23.1605 87.0979V92.3508H17.9076V87.0979C17.9076 85.6473 19.0835 84.4714 20.5341 84.4714ZM24.4738 92.3508V87.0979C24.4738 84.9221 22.7099 83.1582 20.5341 83.1582C18.3583 83.1582 16.5944 84.9221 16.5944 87.0979V92.3508C15.1439 92.3508 13.968 93.5267 13.968 94.9772V101.543C13.968 102.994 15.1439 104.17 16.5944 104.17H24.4738C25.9243 104.17 27.1002 102.994 27.1002 101.543V94.9772C27.1002 93.5267 25.9243 92.3508 24.4738 92.3508ZM16.5944 93.664H24.4738C25.199 93.664 25.787 94.252 25.787 94.9772V101.543C25.787 102.269 25.199 102.857 24.4738 102.857H16.5944C15.8691 102.857 15.2812 102.269 15.2812 101.543V94.9772C15.2812 94.252 15.8691 93.664 16.5944 93.664Z" fill="white"/>
</g>
<defs>
<clipPath id="clip0_336_5497">
<rect width="198.315" height="179.821" fill="white"/>
</clipPath>
</defs>
</svg>
