<svg width="30" height="30" viewBox="0 0 30 30" fill="none" xmlns="http://www.w3.org/2000/svg">
<g clip-path="url(#clip0_196_482)">
<path d="M15 14.1667C16.1537 14.1667 17.2815 13.8246 18.2408 13.1836C19.2001 12.5426 19.9477 11.6316 20.3893 10.5657C20.8308 9.49975 20.9463 8.32687 20.7212 7.19531C20.4961 6.06375 19.9406 5.02435 19.1247 4.20855C18.3089 3.39274 17.2695 2.83717 16.138 2.61209C15.0064 2.38701 13.8335 2.50253 12.7676 2.94404C11.7017 3.38555 10.7907 4.13322 10.1497 5.09251C9.50874 6.0518 9.16663 7.17961 9.16663 8.33334C9.16663 9.88043 9.78121 11.3642 10.8752 12.4581C11.9691 13.5521 13.4529 14.1667 15 14.1667ZM15 4.16667C15.824 4.16667 16.6296 4.41104 17.3148 4.86888C18 5.32672 18.5341 5.97746 18.8495 6.73882C19.1648 7.50018 19.2473 8.33796 19.0866 9.14621C18.9258 9.95447 18.529 10.6969 17.9462 11.2796C17.3635 11.8623 16.6211 12.2592 15.8128 12.4199C15.0046 12.5807 14.1668 12.4982 13.4054 12.1828C12.6441 11.8675 11.9933 11.3334 11.5355 10.6482C11.0777 9.96301 10.8333 9.15742 10.8333 8.33334C10.8333 7.22827 11.2723 6.16846 12.0537 5.38706C12.8351 4.60566 13.8949 4.16667 15 4.16667Z" fill="#777A86"/>
<path d="M25.3916 20.3079C24.0552 18.8954 22.4448 17.7703 20.6587 17.0014C18.8727 16.2325 16.9486 15.8359 15.0041 15.8359C13.0596 15.8359 11.1355 16.2325 9.34951 17.0014C7.56348 17.7703 5.95304 18.8954 4.61663 20.3079C4.32689 20.6174 4.16597 21.0257 4.16663 21.4496V25.8329C4.16663 26.275 4.34222 26.6989 4.65478 27.0114C4.96734 27.324 5.39127 27.4996 5.83329 27.4996H24.1666C24.6087 27.4996 25.0326 27.324 25.3451 27.0114C25.6577 26.6989 25.8333 26.275 25.8333 25.8329V21.4496C25.8362 21.0268 25.6783 20.6187 25.3916 20.3079ZM24.1666 25.8329H5.83329V21.4413C7.01432 20.1977 8.43604 19.2074 10.0119 18.5307C11.5878 17.854 13.2849 17.505 15 17.505C16.715 17.505 18.4121 17.854 19.988 18.5307C21.5639 19.2074 22.9856 20.1977 24.1666 21.4413V25.8329Z" fill="#777A86"/>
</g>
<defs>
<clipPath id="clip0_196_482">
<rect width="30" height="30" fill="white"/>
</clipPath>
</defs>
</svg>
