<svg width="31" height="31" viewBox="0 0 31 31" fill="none" xmlns="http://www.w3.org/2000/svg">
<rect width="31" height="31" rx="15.5" fill="#273E56"/>
<g clip-path="url(#clip0_214_28192)">
<path d="M15.5 10.8047L15.3211 10.859L8.17976 13.2516L6.55609 13.7869L7.50161 14.0897V19.0887C7.16054 19.2869 6.9303 19.6486 6.9303 20.0713C6.9303 20.3744 7.05068 20.665 7.26497 20.8793C7.47925 21.0936 7.76988 21.214 8.07292 21.214C8.37596 21.214 8.66659 21.0936 8.88088 20.8793C9.09516 20.665 9.21554 20.3744 9.21554 20.0713C9.21554 19.6486 8.9853 19.2869 8.64423 19.0887V14.4839L9.78685 14.8581V17.7861C9.78685 18.2546 10.0725 18.6431 10.4119 18.9116C10.7512 19.1784 11.1729 19.3669 11.679 19.536C12.6925 19.8731 14.0283 20.0713 15.5 20.0713C16.9717 20.0713 18.3074 19.8737 19.3209 19.5355C19.8271 19.3669 20.2487 19.1784 20.5881 18.911C20.9274 18.6431 21.2131 18.2546 21.2131 17.7861V14.8581L22.8202 14.3222L24.4438 13.7869L22.8196 13.251L15.6782 10.859L15.5 10.8047ZM15.5 12.0016L20.856 13.7869L15.5 15.5723L10.1439 13.7869L15.5 12.0016ZM10.9295 15.2512L15.3217 16.7149L15.5 16.7686L15.6788 16.7143L20.0704 15.2506V17.7861C20.0704 17.7918 20.0727 17.8581 19.8916 18.0003C19.7111 18.1432 19.3872 18.3231 18.9632 18.4648C18.1166 18.7465 16.8682 18.9287 15.5 18.9287C14.1317 18.9287 12.8834 18.747 12.0361 18.4643C11.6133 18.3231 11.2888 18.1426 11.1083 18.0003C10.9266 17.8575 10.9295 17.7918 10.9295 17.7861V15.2512Z" fill="white"/>
</g>
<defs>
<clipPath id="clip0_214_28192">
<rect width="18.2821" height="18.2821" fill="white" transform="translate(6.35898 6.35938)"/>
</clipPath>
</defs>
</svg>
