<svg width="39" height="39" viewBox="0 0 39 39" fill="none" xmlns="http://www.w3.org/2000/svg">
<path d="M38.7352 19.722C38.7352 19.8907 38.7334 20.0584 38.7282 20.2253C38.6021 25.1162 36.6388 29.695 33.1666 33.1666C29.5763 36.7578 24.8011 38.7353 19.7223 38.7353C14.6432 38.7353 9.86817 36.7578 6.2777 33.1666C2.80571 29.6951 0.842367 25.1159 0.716329 20.2253C0.710737 20.0584 0.709229 19.8907 0.709229 19.722C0.709229 14.6432 2.68651 9.8689 6.2777 6.27772C9.86826 2.68653 14.6435 0.708984 19.7223 0.708984C24.8011 0.708984 29.5763 2.68653 33.1666 6.27772C36.7578 9.8689 38.7352 14.6432 38.7352 19.722Z" fill="#F15F66"/>
<path d="M33.1666 6.27772C29.5763 2.68653 24.8011 0.708984 19.7223 0.708984C14.6432 0.708984 9.86817 2.68653 6.2777 6.27772C2.68678 9.8689 0.709229 14.6432 0.709229 19.722C0.709229 19.8907 0.711004 20.0584 0.716329 20.2253C0.842367 25.1162 2.80571 29.695 6.2777 33.1666C9.868 36.7578 14.6432 38.7353 19.7223 38.7353C24.8011 38.7353 29.5763 36.7578 33.1666 33.1666C36.6388 29.6953 38.6021 25.1162 38.7282 20.2253C38.7336 20.0584 38.7352 19.8907 38.7352 19.722C38.7352 14.6432 36.7578 9.8689 33.1666 6.27772ZM19.7223 37.8478C11.3254 37.8478 4.2445 32.1084 2.19479 24.3466C1.80451 22.8703 1.59682 21.3197 1.59682 19.722C1.59682 9.72778 9.72802 1.59657 19.7223 1.59657C29.7165 1.59657 37.8476 9.72778 37.8476 19.722C37.8476 21.3197 37.6398 22.8706 37.2495 24.3466C35.2001 32.1084 28.1189 37.8478 19.7223 37.8478Z" fill="#F15F66"/>
<path d="M19.7223 26.2402C23.3396 26.2402 26.6922 27.9323 28.4727 30.6566L27.7297 31.1422C26.1116 28.6662 23.0433 27.1279 19.7223 27.1279C16.4013 27.1279 13.3331 28.6658 11.7149 31.1422L10.9719 30.6566C12.7522 27.9323 16.105 26.2402 19.7223 26.2402Z" fill="#273E56"/>
<path d="M16.8559 13.6764L16.2283 13.0488L10.9702 18.3069L11.5978 18.9345L16.8559 13.6764Z" fill="#273E56"/>
<path d="M28.4746 18.3069L23.2166 13.0488L22.589 13.6764L27.8471 18.9345L28.4746 18.3069Z" fill="#273E56"/>
</svg>
