<svg width="31" height="31" viewBox="0 0 31 31" fill="none" xmlns="http://www.w3.org/2000/svg">
<rect width="31" height="31" rx="15.5" fill="#273E56"/>
<g clip-path="url(#clip0_214_28204)">
<path d="M14.0044 10.5146H18.4912V11.5117H14.0044V10.5146Z" fill="white"/>
<path d="M14.0044 12.5088H18.4912V13.5059H14.0044V12.5088Z" fill="white"/>
<path d="M14.0044 14.5029H18.4912V15.5H14.0044V14.5029Z" fill="white"/>
<path d="M14.0044 16.4971H18.4912V17.4941H14.0044V16.4971Z" fill="white"/>
<path d="M14.0044 18.4912H18.4912V19.4883H14.0044V18.4912Z" fill="white"/>
<path d="M12.0102 10.5146H13.0073V11.5117H12.0102V10.5146Z" fill="white"/>
<path d="M12.0102 12.5088H13.0073V13.5059H12.0102V12.5088Z" fill="white"/>
<path d="M12.0102 14.5029H13.0073V15.5H12.0102V14.5029Z" fill="white"/>
<path d="M12.0102 16.4971H13.0073V17.4941H12.0102V16.4971Z" fill="white"/>
<path d="M12.0102 18.4912H13.0073V19.4883H12.0102V18.4912Z" fill="white"/>
<path d="M20.4854 7.52344H10.5146C10.2502 7.52344 9.99657 7.62849 9.80958 7.81547C9.6226 8.00246 9.51755 8.25607 9.51755 8.52051V22.4796C9.51755 22.744 9.6226 22.9976 9.80958 23.1846C9.99657 23.3716 10.2502 23.4767 10.5146 23.4767H20.4854C20.7498 23.4767 21.0034 23.3716 21.1904 23.1846C21.3774 22.9976 21.4825 22.744 21.4825 22.4796V8.52051C21.4825 8.25607 21.3774 8.00246 21.1904 7.81547C21.0034 7.62849 20.7498 7.52344 20.4854 7.52344ZM20.4854 22.4796H10.5146V8.52051H20.4854V22.4796Z" fill="white"/>
</g>
<defs>
<clipPath id="clip0_214_28204">
<rect width="17.9474" height="17.9474" fill="white" transform="translate(6.52631 6.52637)"/>
</clipPath>
</defs>
</svg>
