<svg width="9" height="10" viewBox="0 0 9 10" fill="none" xmlns="http://www.w3.org/2000/svg">
<path d="M4.50002 7.3707L2.49586 8.90091C2.39655 8.98216 2.28822 9.02044 2.17086 9.01575C2.0535 9.01141 1.94968 8.97765 1.8594 8.91445C1.76912 8.85126 1.69925 8.76549 1.64977 8.65716C1.59994 8.54883 1.59759 8.43147 1.64273 8.30508L2.41461 5.79987L0.451065 4.40508C0.342732 4.33286 0.275024 4.23806 0.24794 4.1207C0.220857 4.00334 0.225371 3.89501 0.261482 3.7957C0.297593 3.6964 0.360788 3.60829 0.451065 3.53137C0.541343 3.45481 0.649677 3.41654 0.776065 3.41654H3.20002L3.98544 0.816536C4.03058 0.690148 4.10063 0.593009 4.19561 0.52512C4.29022 0.457592 4.39169 0.423828 4.50002 0.423828C4.60836 0.423828 4.70983 0.457592 4.80444 0.52512C4.89941 0.593009 4.96947 0.690148 5.01461 0.816536L5.80002 3.41654H8.22398C8.35037 3.41654 8.4587 3.45481 8.54898 3.53137C8.63926 3.60829 8.70245 3.6964 8.73857 3.7957C8.77468 3.89501 8.77919 4.00334 8.75211 4.1207C8.72502 4.23806 8.65732 4.33286 8.54898 4.40508L6.58544 5.79987L7.35732 8.30508C7.40245 8.43147 7.40029 8.54883 7.35082 8.65716C7.30098 8.76549 7.23093 8.85126 7.14065 8.91445C7.05037 8.97765 6.94655 9.01141 6.82919 9.01575C6.71183 9.02044 6.6035 8.98216 6.50419 8.90091L4.50002 7.3707Z" fill="#20BE79"/>
</svg>
