<svg width="360" height="316" viewBox="0 0 360 316" fill="none" xmlns="http://www.w3.org/2000/svg">
<g clip-path="url(#clip0_791_3231)">
<circle cx="180.5" cy="225.5" r="84.8438" fill="#E8F9F1" stroke="#E8F9F1" stroke-width="11.3125"/>
<circle cx="180.209" cy="225.209" r="72.3837" fill="#D3F4E5" stroke="#D3F4E5" stroke-width="9.65115"/>
<circle cx="180.909" cy="225.909" r="59.1739" fill="#C1EFDA" stroke="#C1EFDA" stroke-width="7.47046"/>
<circle cx="180.5" cy="225.5" r="44.5312" fill="#20BE79" stroke="#20BE79" stroke-width="5.9375"/>
<rect width="67.8571" height="67.8571" transform="translate(147 192)" fill="#20BE79"/>
<path d="M158.663 229.11L173.507 243.954L203.194 212.146" stroke="white" stroke-width="6.78571" stroke-linecap="round" stroke-linejoin="round"/>
<circle cx="90.5" cy="131.5" r="8" stroke="#F15F66"/>
<circle cx="227.112" cy="52.1119" r="4.81119" stroke="#F15F66" stroke-width="0.601399"/>
<circle cx="53.5806" cy="68.5806" r="4.31111" stroke="#F15F66" stroke-width="0.538888"/>
<circle cx="305.581" cy="124.581" r="4.31111" stroke="#F15F66" stroke-width="0.538888"/>
<circle cx="282.581" cy="262.581" r="4.31111" stroke="#F15F66" stroke-width="0.538888"/>
<circle cx="13.5806" cy="215.581" r="4.31111" stroke="#F15F66" stroke-width="0.538888"/>
<circle cx="34.5806" cy="267.581" r="4.31111" stroke="#F15F66" stroke-width="0.538888"/>
<circle cx="301.5" cy="191.5" r="8" stroke="#F15F66"/>
<rect x="193.5" y="85.5" width="15" height="15" stroke="#A6B8FF"/>
<rect x="285.804" y="0.300699" width="9.02098" height="9.02098" stroke="#A6B8FF" stroke-width="0.601399"/>
<rect x="107.647" y="43.2694" width="8.08333" height="8.08333" stroke="#A6B8FF" stroke-width="0.538888"/>
<rect x="351.647" y="138.269" width="8.08333" height="8.08333" stroke="#A6B8FF" stroke-width="0.538888"/>
<rect x="289.269" y="226.269" width="8.08333" height="8.08333" stroke="#A6B8FF" stroke-width="0.538888"/>
<rect x="77.6471" y="178.269" width="8.08333" height="8.08333" stroke="#A6B8FF" stroke-width="0.538888"/>
<rect x="160.269" y="42.2694" width="8.08333" height="8.08333" stroke="#A6B8FF" stroke-width="0.538888"/>
<rect x="52.5" y="212.5" width="15" height="15" stroke="#A6B8FF"/>
<path d="M34.2058 152.5L42 139L49.7942 152.5H34.2058Z" stroke="#FFAF59"/>
<path d="M227.327 103.72L232.014 95.6014L236.701 103.72H227.327Z" stroke="#FFAF59" stroke-width="0.601399"/>
<path d="M20.1887 117.097L24.3889 109.822L28.5891 117.097H20.1887Z" stroke="#FFAF59" stroke-width="0.538888"/>
<path d="M312.189 100.814L316.389 93.5389L320.589 100.814H312.189Z" stroke="#FFAF59" stroke-width="0.538888"/>
<path d="M132.189 75.8139L136.389 68.5389L140.589 75.8139H132.189Z" stroke="#FFAF59" stroke-width="0.538888"/>
<path d="M39.1887 245.814L43.3889 238.539L47.5891 245.814H39.1887Z" stroke="#FFAF59" stroke-width="0.538888"/>
<path d="M1.18866 172.814L5.38889 165.539L9.5891 172.814H1.18866Z" stroke="#FFAF59" stroke-width="0.538888"/>
<path d="M146 116.618L147.77 122.064L147.882 122.41H148.245H153.972L149.339 125.776L149.045 125.989L149.157 126.335L150.927 131.781L146.294 128.415L146 128.202L145.706 128.415L141.073 131.781L142.843 126.335L142.955 125.989L142.661 125.776L138.028 122.41H143.755H144.118L144.23 122.064L146 116.618Z" stroke="#7ED8F3"/>
<path d="M278.014 89.9731L279.078 93.2485L279.146 93.4563H279.364H282.808L280.022 95.4806L279.845 95.609L279.913 95.8168L280.977 99.0922L278.191 97.0679L278.014 96.9394L277.837 97.0679L275.051 99.0922L276.115 95.8168L276.183 95.609L276.006 95.4806L273.22 93.4563H276.664H276.882L276.95 93.2485L278.014 89.9731Z" stroke="#7ED8F3" stroke-width="0.601399"/>
<path d="M86.3611 76.2049L87.3147 79.1399L87.3752 79.3261H87.5709H90.6569L88.1603 81.14L88.0019 81.255L88.0624 81.4412L89.016 84.3762L86.5194 82.5623L86.3611 82.4472L86.2027 82.5623L83.7061 84.3762L84.6597 81.4412L84.7202 81.255L84.5618 81.14L82.0652 79.3261H85.1512H85.3469L85.4074 79.1399L86.3611 76.2049Z" stroke="#7ED8F3" stroke-width="0.538888"/>
<path d="M330.361 171.205L331.315 174.14L331.375 174.326H331.571H334.657L332.16 176.14L332.002 176.255L332.062 176.441L333.016 179.376L330.519 177.562L330.361 177.447L330.203 177.562L327.706 179.376L328.66 176.441L328.72 176.255L328.562 176.14L326.065 174.326H329.151H329.347L329.407 174.14L330.361 171.205Z" stroke="#7ED8F3" stroke-width="0.538888"/>
<path d="M298.389 151.872L299.343 154.807L299.403 154.993H299.599H302.685L300.188 156.807L300.03 156.922L300.09 157.108L301.044 160.043L298.547 158.229L298.389 158.114L298.231 158.229L295.734 160.043L296.688 157.108L296.748 156.922L296.59 156.807L294.093 154.993H297.179H297.375L297.435 154.807L298.389 151.872Z" stroke="#7ED8F3" stroke-width="0.538888"/>
<path d="M72.3889 268.872L73.3425 271.807L73.403 271.993H73.5988H76.6848L74.1881 273.807L74.0298 273.922L74.0903 274.108L75.0439 277.043L72.5473 275.229L72.3889 275.114L72.2305 275.229L69.7339 277.043L70.6875 274.108L70.748 273.922L70.5896 273.807L68.093 271.993H71.179H71.3748L71.4353 271.807L72.3889 268.872Z" stroke="#7ED8F3" stroke-width="0.538888"/>
<path d="M324.389 233.872L325.343 236.807L325.403 236.993H325.599H328.685L326.188 238.807L326.03 238.922L326.09 239.108L327.044 242.043L324.547 240.229L324.389 240.114L324.231 240.229L321.734 242.043L322.688 239.108L322.748 238.922L322.59 238.807L320.093 236.993H323.179H323.375L323.435 236.807L324.389 233.872Z" stroke="#7ED8F3" stroke-width="0.538888"/>
<path d="M251 139.618L252.77 145.064L252.882 145.41H253.245H258.972L254.339 148.776L254.045 148.989L254.157 149.335L255.927 154.781L251.294 151.415L251 151.202L250.706 151.415L246.073 154.781L247.843 149.335L247.955 148.989L247.661 148.776L243.028 145.41H248.755H249.118L249.23 145.064L251 139.618Z" stroke="#7ED8F3"/>
</g>
<defs>
<clipPath id="clip0_791_3231">
<rect width="360" height="316" fill="white"/>
</clipPath>
</defs>
</svg>
