<svg width="52" height="52" viewBox="0 0 52 52" fill="none" xmlns="http://www.w3.org/2000/svg">
<rect width="52" height="52" rx="26" fill="#FF4942"/>
<path d="M26 22C27.9667 22 29.904 22.396 31.812 23.188C33.7207 23.9793 35.4167 25.1667 36.9 26.75C37.1 26.95 37.2 27.1833 37.2 27.45C37.2 27.7167 37.1 27.95 36.9 28.15L34.6 30.4C34.4167 30.5833 34.2043 30.6833 33.963 30.7C33.721 30.7167 33.5 30.65 33.3 30.5L30.4 28.3C30.2667 28.2 30.1667 28.0833 30.1 27.95C30.0333 27.8167 30 27.6667 30 27.5V24.65C29.3667 24.45 28.7167 24.2917 28.05 24.175C27.3833 24.0583 26.7 24 26 24C25.3 24 24.6167 24.0583 23.95 24.175C23.2833 24.2917 22.6333 24.45 22 24.65V27.5C22 27.6667 21.9667 27.8167 21.9 27.95C21.8333 28.0833 21.7333 28.2 21.6 28.3L18.7 30.5C18.5 30.65 18.2793 30.7167 18.038 30.7C17.796 30.6833 17.5833 30.5833 17.4 30.4L15.1 28.15C14.9 27.95 14.8 27.7167 14.8 27.45C14.8 27.1833 14.9 26.95 15.1 26.75C16.5667 25.1667 18.2583 23.9793 20.175 23.188C22.0917 22.396 24.0333 22 26 22Z" fill="white"/>
</svg>
