<svg width="47" height="48" viewBox="0 0 47 48" fill="none" xmlns="http://www.w3.org/2000/svg">
<rect y="0.5" width="47" height="47" rx="23.5" fill="#273E56"/>
<path fill-rule="evenodd" clip-rule="evenodd" d="M16.5 17C15.7044 17 14.9413 17.3161 14.3787 17.8787C13.8161 18.4413 13.5 19.2044 13.5 20V28C13.5 28.7956 13.8161 29.5587 14.3787 30.1213C14.9413 30.6839 15.7044 31 16.5 31H26.5C27.2956 31 28.0587 30.6839 28.6213 30.1213C29.1839 29.5587 29.5 28.7956 29.5 28V26.414L31.793 28.707C31.9329 28.8468 32.111 28.942 32.305 28.9806C32.4989 29.0192 32.7 28.9993 32.8827 28.9237C33.0654 28.848 33.2215 28.7199 33.3314 28.5555C33.4413 28.391 33.5 28.1978 33.5 28V20C33.5 19.8022 33.4413 19.609 33.3314 19.4445C33.2215 19.2801 33.0654 19.152 32.8827 19.0763C32.7 19.0007 32.4989 18.9808 32.305 19.0194C32.111 19.058 31.9329 19.1532 31.793 19.293L29.5 21.586V20C29.5 19.2044 29.1839 18.4413 28.6213 17.8787C28.0587 17.3161 27.2956 17 26.5 17H16.5Z" fill="white"/>
</svg>
